G04 #@! TF.GenerationSoftware,KiCad,Pcbnew,5.1.6-c6e7f7d~87~ubuntu18.04.1*
G04 #@! TF.CreationDate,2020-08-21T12:14:16-04:00*
G04 #@! TF.ProjectId,lm3886_stereo_amp,6c6d3338-3836-45f7-9374-6572656f5f61,1*
G04 #@! TF.SameCoordinates,Original*
G04 #@! TF.FileFunction,Soldermask,Bot*
G04 #@! TF.FilePolarity,Negative*
%FSLAX46Y46*%
G04 Gerber Fmt 4.6, Leading zero omitted, Abs format (unit mm)*
G04 Created by KiCad (PCBNEW 5.1.6-c6e7f7d~87~ubuntu18.04.1) date 2020-08-21 12:14:16*
%MOMM*%
%LPD*%
G01*
G04 APERTURE LIST*
%ADD10C,0.100000*%
G04 APERTURE END LIST*
D10*
G36*
X142477903Y-108017075D02*
G01*
X142580689Y-108059650D01*
X142705571Y-108111378D01*
X142910466Y-108248285D01*
X143084715Y-108422534D01*
X143084716Y-108422536D01*
X143221623Y-108627431D01*
X143315925Y-108855097D01*
X143364000Y-109096786D01*
X143364000Y-109343214D01*
X143344495Y-109441271D01*
X143315925Y-109584903D01*
X143221622Y-109812571D01*
X143084715Y-110017466D01*
X142910466Y-110191715D01*
X142705571Y-110328622D01*
X142705570Y-110328623D01*
X142705569Y-110328623D01*
X142477903Y-110422925D01*
X142236214Y-110471000D01*
X141989786Y-110471000D01*
X141748097Y-110422925D01*
X141520431Y-110328623D01*
X141520430Y-110328623D01*
X141520429Y-110328622D01*
X141315534Y-110191715D01*
X141141285Y-110017466D01*
X141004378Y-109812571D01*
X140910075Y-109584903D01*
X140881505Y-109441271D01*
X140862000Y-109343214D01*
X140862000Y-109096786D01*
X140910075Y-108855097D01*
X141004377Y-108627431D01*
X141141284Y-108422536D01*
X141141285Y-108422534D01*
X141315534Y-108248285D01*
X141520429Y-108111378D01*
X141645312Y-108059650D01*
X141748097Y-108017075D01*
X141989786Y-107969000D01*
X142236214Y-107969000D01*
X142477903Y-108017075D01*
G37*
G36*
X136548060Y-110386060D02*
G01*
X132945940Y-110386060D01*
X132945940Y-106783940D01*
X136548060Y-106783940D01*
X136548060Y-110386060D01*
G37*
G36*
X130528905Y-106793789D02*
G01*
X130827350Y-106853153D01*
X131155122Y-106988921D01*
X131450109Y-107186025D01*
X131700975Y-107436891D01*
X131898079Y-107731878D01*
X132033847Y-108059650D01*
X132103060Y-108407611D01*
X132103060Y-108762389D01*
X132033847Y-109110350D01*
X131898079Y-109438122D01*
X131700975Y-109733109D01*
X131450109Y-109983975D01*
X131155122Y-110181079D01*
X130827350Y-110316847D01*
X130528905Y-110376211D01*
X130479390Y-110386060D01*
X130124610Y-110386060D01*
X130075095Y-110376211D01*
X129776650Y-110316847D01*
X129448878Y-110181079D01*
X129153891Y-109983975D01*
X128903025Y-109733109D01*
X128705921Y-109438122D01*
X128570153Y-109110350D01*
X128500940Y-108762389D01*
X128500940Y-108407611D01*
X128570153Y-108059650D01*
X128705921Y-107731878D01*
X128903025Y-107436891D01*
X129153891Y-107186025D01*
X129448878Y-106988921D01*
X129776650Y-106853153D01*
X130075095Y-106793789D01*
X130124610Y-106783940D01*
X130479390Y-106783940D01*
X130528905Y-106793789D01*
G37*
G36*
X126083905Y-106793789D02*
G01*
X126382350Y-106853153D01*
X126710122Y-106988921D01*
X127005109Y-107186025D01*
X127255975Y-107436891D01*
X127453079Y-107731878D01*
X127588847Y-108059650D01*
X127658060Y-108407611D01*
X127658060Y-108762389D01*
X127588847Y-109110350D01*
X127453079Y-109438122D01*
X127255975Y-109733109D01*
X127005109Y-109983975D01*
X126710122Y-110181079D01*
X126382350Y-110316847D01*
X126083905Y-110376211D01*
X126034390Y-110386060D01*
X125679610Y-110386060D01*
X125630095Y-110376211D01*
X125331650Y-110316847D01*
X125003878Y-110181079D01*
X124708891Y-109983975D01*
X124458025Y-109733109D01*
X124260921Y-109438122D01*
X124125153Y-109110350D01*
X124055940Y-108762389D01*
X124055940Y-108407611D01*
X124125153Y-108059650D01*
X124260921Y-107731878D01*
X124458025Y-107436891D01*
X124708891Y-107186025D01*
X125003878Y-106988921D01*
X125331650Y-106853153D01*
X125630095Y-106793789D01*
X125679610Y-106783940D01*
X126034390Y-106783940D01*
X126083905Y-106793789D01*
G37*
G36*
X149375060Y-110259060D02*
G01*
X145772940Y-110259060D01*
X145772940Y-106656940D01*
X149375060Y-106656940D01*
X149375060Y-110259060D01*
G37*
G36*
X152880905Y-106666789D02*
G01*
X153179350Y-106726153D01*
X153507122Y-106861921D01*
X153802109Y-107059025D01*
X154052975Y-107309891D01*
X154250079Y-107604878D01*
X154385847Y-107932650D01*
X154455060Y-108280611D01*
X154455060Y-108635389D01*
X154385847Y-108983350D01*
X154250079Y-109311122D01*
X154052975Y-109606109D01*
X153802109Y-109856975D01*
X153507122Y-110054079D01*
X153179350Y-110189847D01*
X152880905Y-110249211D01*
X152831390Y-110259060D01*
X152476610Y-110259060D01*
X152427095Y-110249211D01*
X152128650Y-110189847D01*
X151800878Y-110054079D01*
X151505891Y-109856975D01*
X151255025Y-109606109D01*
X151057921Y-109311122D01*
X150922153Y-108983350D01*
X150852940Y-108635389D01*
X150852940Y-108280611D01*
X150922153Y-107932650D01*
X151057921Y-107604878D01*
X151255025Y-107309891D01*
X151505891Y-107059025D01*
X151800878Y-106861921D01*
X152128650Y-106726153D01*
X152427095Y-106666789D01*
X152476610Y-106656940D01*
X152831390Y-106656940D01*
X152880905Y-106666789D01*
G37*
G36*
X168936870Y-109500870D02*
G01*
X165835130Y-109500870D01*
X165835130Y-106399130D01*
X168936870Y-106399130D01*
X168936870Y-109500870D01*
G37*
G36*
X163928497Y-106438863D02*
G01*
X164028372Y-106458729D01*
X164145279Y-106507154D01*
X164310611Y-106575636D01*
X164564621Y-106745360D01*
X164780640Y-106961379D01*
X164950364Y-107215389D01*
X165067271Y-107497629D01*
X165126870Y-107797251D01*
X165126870Y-108102749D01*
X165097921Y-108248284D01*
X165067271Y-108402372D01*
X165018846Y-108519279D01*
X164950364Y-108684611D01*
X164780640Y-108938621D01*
X164564621Y-109154640D01*
X164310611Y-109324364D01*
X164145279Y-109392846D01*
X164028372Y-109441271D01*
X163928497Y-109461137D01*
X163728749Y-109500870D01*
X163423251Y-109500870D01*
X163223503Y-109461137D01*
X163123628Y-109441271D01*
X163006721Y-109392846D01*
X162841389Y-109324364D01*
X162587379Y-109154640D01*
X162371360Y-108938621D01*
X162201636Y-108684611D01*
X162133154Y-108519279D01*
X162084729Y-108402372D01*
X162054079Y-108248284D01*
X162025130Y-108102749D01*
X162025130Y-107797251D01*
X162084729Y-107497629D01*
X162201636Y-107215389D01*
X162371360Y-106961379D01*
X162587379Y-106745360D01*
X162841389Y-106575636D01*
X163006721Y-106507154D01*
X163123628Y-106458729D01*
X163223503Y-106438863D01*
X163423251Y-106399130D01*
X163728749Y-106399130D01*
X163928497Y-106438863D01*
G37*
G36*
X163570228Y-103512203D02*
G01*
X163725100Y-103576353D01*
X163864481Y-103669485D01*
X163983015Y-103788019D01*
X164076147Y-103927400D01*
X164140297Y-104082272D01*
X164173000Y-104246684D01*
X164173000Y-104414316D01*
X164140297Y-104578728D01*
X164076147Y-104733600D01*
X163983015Y-104872981D01*
X163864481Y-104991515D01*
X163725100Y-105084647D01*
X163570228Y-105148797D01*
X163405816Y-105181500D01*
X163238184Y-105181500D01*
X163073772Y-105148797D01*
X162918900Y-105084647D01*
X162779519Y-104991515D01*
X162660985Y-104872981D01*
X162567853Y-104733600D01*
X162503703Y-104578728D01*
X162471000Y-104414316D01*
X162471000Y-104246684D01*
X162503703Y-104082272D01*
X162567853Y-103927400D01*
X162660985Y-103788019D01*
X162779519Y-103669485D01*
X162918900Y-103576353D01*
X163073772Y-103512203D01*
X163238184Y-103479500D01*
X163405816Y-103479500D01*
X163570228Y-103512203D01*
G37*
G36*
X167634228Y-103495703D02*
G01*
X167789100Y-103559853D01*
X167928481Y-103652985D01*
X168047015Y-103771519D01*
X168140147Y-103910900D01*
X168204297Y-104065772D01*
X168237000Y-104230184D01*
X168237000Y-104397816D01*
X168204297Y-104562228D01*
X168140147Y-104717100D01*
X168047015Y-104856481D01*
X167928481Y-104975015D01*
X167789100Y-105068147D01*
X167634228Y-105132297D01*
X167469816Y-105165000D01*
X167302184Y-105165000D01*
X167137772Y-105132297D01*
X166982900Y-105068147D01*
X166843519Y-104975015D01*
X166724985Y-104856481D01*
X166631853Y-104717100D01*
X166567703Y-104562228D01*
X166535000Y-104397816D01*
X166535000Y-104230184D01*
X166567703Y-104065772D01*
X166631853Y-103910900D01*
X166724985Y-103771519D01*
X166843519Y-103652985D01*
X166982900Y-103559853D01*
X167137772Y-103495703D01*
X167302184Y-103463000D01*
X167469816Y-103463000D01*
X167634228Y-103495703D01*
G37*
G36*
X148076228Y-102305703D02*
G01*
X148231100Y-102369853D01*
X148370481Y-102462985D01*
X148489015Y-102581519D01*
X148582147Y-102720900D01*
X148646297Y-102875772D01*
X148679000Y-103040184D01*
X148679000Y-103207816D01*
X148646297Y-103372228D01*
X148582147Y-103527100D01*
X148489015Y-103666481D01*
X148370481Y-103785015D01*
X148231100Y-103878147D01*
X148076228Y-103942297D01*
X147911816Y-103975000D01*
X147744184Y-103975000D01*
X147579772Y-103942297D01*
X147424900Y-103878147D01*
X147285519Y-103785015D01*
X147166985Y-103666481D01*
X147073853Y-103527100D01*
X147009703Y-103372228D01*
X146977000Y-103207816D01*
X146977000Y-103040184D01*
X147009703Y-102875772D01*
X147073853Y-102720900D01*
X147166985Y-102581519D01*
X147285519Y-102462985D01*
X147424900Y-102369853D01*
X147579772Y-102305703D01*
X147744184Y-102273000D01*
X147911816Y-102273000D01*
X148076228Y-102305703D01*
G37*
G36*
X153076228Y-102305703D02*
G01*
X153231100Y-102369853D01*
X153370481Y-102462985D01*
X153489015Y-102581519D01*
X153582147Y-102720900D01*
X153646297Y-102875772D01*
X153679000Y-103040184D01*
X153679000Y-103207816D01*
X153646297Y-103372228D01*
X153582147Y-103527100D01*
X153489015Y-103666481D01*
X153370481Y-103785015D01*
X153231100Y-103878147D01*
X153076228Y-103942297D01*
X152911816Y-103975000D01*
X152744184Y-103975000D01*
X152579772Y-103942297D01*
X152424900Y-103878147D01*
X152285519Y-103785015D01*
X152166985Y-103666481D01*
X152073853Y-103527100D01*
X152009703Y-103372228D01*
X151977000Y-103207816D01*
X151977000Y-103040184D01*
X152009703Y-102875772D01*
X152073853Y-102720900D01*
X152166985Y-102581519D01*
X152285519Y-102462985D01*
X152424900Y-102369853D01*
X152579772Y-102305703D01*
X152744184Y-102273000D01*
X152911816Y-102273000D01*
X153076228Y-102305703D01*
G37*
G36*
X138211000Y-101762000D02*
G01*
X136109000Y-101762000D01*
X136109000Y-99660000D01*
X138211000Y-99660000D01*
X138211000Y-101762000D01*
G37*
G36*
X132466564Y-99700389D02*
G01*
X132657833Y-99779615D01*
X132657835Y-99779616D01*
X132829973Y-99894635D01*
X132976365Y-100041027D01*
X133048375Y-100148797D01*
X133091385Y-100213167D01*
X133170611Y-100404436D01*
X133211000Y-100607484D01*
X133211000Y-100814516D01*
X133170611Y-101017564D01*
X133091385Y-101208833D01*
X133091384Y-101208835D01*
X132976365Y-101380973D01*
X132829973Y-101527365D01*
X132657835Y-101642384D01*
X132657834Y-101642385D01*
X132657833Y-101642385D01*
X132466564Y-101721611D01*
X132263516Y-101762000D01*
X132056484Y-101762000D01*
X131853436Y-101721611D01*
X131662167Y-101642385D01*
X131662166Y-101642385D01*
X131662165Y-101642384D01*
X131490027Y-101527365D01*
X131343635Y-101380973D01*
X131228616Y-101208835D01*
X131228615Y-101208833D01*
X131149389Y-101017564D01*
X131109000Y-100814516D01*
X131109000Y-100607484D01*
X131149389Y-100404436D01*
X131228615Y-100213167D01*
X131271626Y-100148797D01*
X131343635Y-100041027D01*
X131490027Y-99894635D01*
X131662165Y-99779616D01*
X131662167Y-99779615D01*
X131853436Y-99700389D01*
X132056484Y-99660000D01*
X132263516Y-99660000D01*
X132466564Y-99700389D01*
G37*
G36*
X163570228Y-98512203D02*
G01*
X163725100Y-98576353D01*
X163864481Y-98669485D01*
X163983015Y-98788019D01*
X164076147Y-98927400D01*
X164140297Y-99082272D01*
X164173000Y-99246684D01*
X164173000Y-99414316D01*
X164140297Y-99578728D01*
X164076147Y-99733600D01*
X163983015Y-99872981D01*
X163864481Y-99991515D01*
X163725100Y-100084647D01*
X163570228Y-100148797D01*
X163405816Y-100181500D01*
X163238184Y-100181500D01*
X163073772Y-100148797D01*
X162918900Y-100084647D01*
X162779519Y-99991515D01*
X162660985Y-99872981D01*
X162567853Y-99733600D01*
X162503703Y-99578728D01*
X162471000Y-99414316D01*
X162471000Y-99246684D01*
X162503703Y-99082272D01*
X162567853Y-98927400D01*
X162660985Y-98788019D01*
X162779519Y-98669485D01*
X162918900Y-98576353D01*
X163073772Y-98512203D01*
X163238184Y-98479500D01*
X163405816Y-98479500D01*
X163570228Y-98512203D01*
G37*
G36*
X167634228Y-98495703D02*
G01*
X167789100Y-98559853D01*
X167928481Y-98652985D01*
X168047015Y-98771519D01*
X168140147Y-98910900D01*
X168204297Y-99065772D01*
X168237000Y-99230184D01*
X168237000Y-99397816D01*
X168204297Y-99562228D01*
X168140147Y-99717100D01*
X168047015Y-99856481D01*
X167928481Y-99975015D01*
X167789100Y-100068147D01*
X167634228Y-100132297D01*
X167469816Y-100165000D01*
X167302184Y-100165000D01*
X167137772Y-100132297D01*
X166982900Y-100068147D01*
X166843519Y-99975015D01*
X166724985Y-99856481D01*
X166631853Y-99717100D01*
X166567703Y-99562228D01*
X166535000Y-99397816D01*
X166535000Y-99230184D01*
X166567703Y-99065772D01*
X166631853Y-98910900D01*
X166724985Y-98771519D01*
X166843519Y-98652985D01*
X166982900Y-98559853D01*
X167137772Y-98495703D01*
X167302184Y-98463000D01*
X167469816Y-98463000D01*
X167634228Y-98495703D01*
G37*
G36*
X142477903Y-92777075D02*
G01*
X142705571Y-92871378D01*
X142910466Y-93008285D01*
X143084715Y-93182534D01*
X143092721Y-93194516D01*
X143221623Y-93387431D01*
X143315925Y-93615097D01*
X143344942Y-93760973D01*
X143364000Y-93856787D01*
X143364000Y-94103213D01*
X143315925Y-94344903D01*
X143221622Y-94572571D01*
X143084715Y-94777466D01*
X142910466Y-94951715D01*
X142705571Y-95088622D01*
X142705570Y-95088623D01*
X142705569Y-95088623D01*
X142477903Y-95182925D01*
X142236214Y-95231000D01*
X141989786Y-95231000D01*
X141748097Y-95182925D01*
X141520431Y-95088623D01*
X141520430Y-95088623D01*
X141520429Y-95088622D01*
X141315534Y-94951715D01*
X141141285Y-94777466D01*
X141004378Y-94572571D01*
X140910075Y-94344903D01*
X140862000Y-94103213D01*
X140862000Y-93856787D01*
X140881059Y-93760973D01*
X140910075Y-93615097D01*
X141004377Y-93387431D01*
X141133279Y-93194516D01*
X141141285Y-93182534D01*
X141315534Y-93008285D01*
X141520429Y-92871378D01*
X141748097Y-92777075D01*
X141989786Y-92729000D01*
X142236214Y-92729000D01*
X142477903Y-92777075D01*
G37*
G36*
X130083000Y-94142000D02*
G01*
X127981000Y-94142000D01*
X127981000Y-92040000D01*
X130083000Y-92040000D01*
X130083000Y-94142000D01*
G37*
G36*
X124338564Y-92080389D02*
G01*
X124475235Y-92137000D01*
X124529835Y-92159616D01*
X124657896Y-92245184D01*
X124701973Y-92274635D01*
X124848365Y-92421027D01*
X124963385Y-92593167D01*
X125042611Y-92784436D01*
X125083000Y-92987484D01*
X125083000Y-93194516D01*
X125042611Y-93397564D01*
X124963385Y-93588833D01*
X124963384Y-93588835D01*
X124848365Y-93760973D01*
X124701973Y-93907365D01*
X124529835Y-94022384D01*
X124529834Y-94022385D01*
X124529833Y-94022385D01*
X124338564Y-94101611D01*
X124135516Y-94142000D01*
X123928484Y-94142000D01*
X123725436Y-94101611D01*
X123534167Y-94022385D01*
X123534166Y-94022385D01*
X123534165Y-94022384D01*
X123362027Y-93907365D01*
X123215635Y-93760973D01*
X123100616Y-93588835D01*
X123100615Y-93588833D01*
X123021389Y-93397564D01*
X122981000Y-93194516D01*
X122981000Y-92987484D01*
X123021389Y-92784436D01*
X123100615Y-92593167D01*
X123215635Y-92421027D01*
X123362027Y-92274635D01*
X123406104Y-92245184D01*
X123534165Y-92159616D01*
X123588765Y-92137000D01*
X123725436Y-92080389D01*
X123928484Y-92040000D01*
X124135516Y-92040000D01*
X124338564Y-92080389D01*
G37*
G36*
X133638228Y-91510703D02*
G01*
X133793100Y-91574853D01*
X133932481Y-91667985D01*
X134051015Y-91786519D01*
X134144147Y-91925900D01*
X134208297Y-92080772D01*
X134241000Y-92245184D01*
X134241000Y-92412816D01*
X134208297Y-92577228D01*
X134144147Y-92732100D01*
X134051015Y-92871481D01*
X133932481Y-92990015D01*
X133793100Y-93083147D01*
X133638228Y-93147297D01*
X133473816Y-93180000D01*
X133306184Y-93180000D01*
X133141772Y-93147297D01*
X132986900Y-93083147D01*
X132847519Y-92990015D01*
X132728985Y-92871481D01*
X132635853Y-92732100D01*
X132571703Y-92577228D01*
X132539000Y-92412816D01*
X132539000Y-92245184D01*
X132571703Y-92080772D01*
X132635853Y-91925900D01*
X132728985Y-91786519D01*
X132847519Y-91667985D01*
X132986900Y-91574853D01*
X133141772Y-91510703D01*
X133306184Y-91478000D01*
X133473816Y-91478000D01*
X133638228Y-91510703D01*
G37*
G36*
X136741000Y-93180000D02*
G01*
X135039000Y-93180000D01*
X135039000Y-91478000D01*
X136741000Y-91478000D01*
X136741000Y-93180000D01*
G37*
G36*
X159136395Y-90271546D02*
G01*
X159309466Y-90343234D01*
X159309467Y-90343235D01*
X159465227Y-90447310D01*
X159597690Y-90579773D01*
X159597691Y-90579775D01*
X159701766Y-90735534D01*
X159773454Y-90908605D01*
X159810000Y-91092333D01*
X159810000Y-91279667D01*
X159773454Y-91463395D01*
X159701766Y-91636466D01*
X159650081Y-91713818D01*
X159597690Y-91792227D01*
X159465227Y-91924690D01*
X159386818Y-91977081D01*
X159309466Y-92028766D01*
X159136395Y-92100454D01*
X158952667Y-92137000D01*
X158765333Y-92137000D01*
X158581605Y-92100454D01*
X158408534Y-92028766D01*
X158331182Y-91977081D01*
X158252773Y-91924690D01*
X158120310Y-91792227D01*
X158067919Y-91713818D01*
X158016234Y-91636466D01*
X157944546Y-91463395D01*
X157908000Y-91279667D01*
X157908000Y-91092333D01*
X157944546Y-90908605D01*
X158016234Y-90735534D01*
X158120309Y-90579775D01*
X158120310Y-90579773D01*
X158252773Y-90447310D01*
X158408533Y-90343235D01*
X158408534Y-90343234D01*
X158581605Y-90271546D01*
X158765333Y-90235000D01*
X158952667Y-90235000D01*
X159136395Y-90271546D01*
G37*
G36*
X155736395Y-90271546D02*
G01*
X155909466Y-90343234D01*
X155909467Y-90343235D01*
X156065227Y-90447310D01*
X156197690Y-90579773D01*
X156197691Y-90579775D01*
X156301766Y-90735534D01*
X156373454Y-90908605D01*
X156410000Y-91092333D01*
X156410000Y-91279667D01*
X156373454Y-91463395D01*
X156301766Y-91636466D01*
X156250081Y-91713818D01*
X156197690Y-91792227D01*
X156065227Y-91924690D01*
X155986818Y-91977081D01*
X155909466Y-92028766D01*
X155736395Y-92100454D01*
X155552667Y-92137000D01*
X155365333Y-92137000D01*
X155181605Y-92100454D01*
X155008534Y-92028766D01*
X154931182Y-91977081D01*
X154852773Y-91924690D01*
X154720310Y-91792227D01*
X154667919Y-91713818D01*
X154616234Y-91636466D01*
X154544546Y-91463395D01*
X154508000Y-91279667D01*
X154508000Y-91092333D01*
X154544546Y-90908605D01*
X154616234Y-90735534D01*
X154720309Y-90579775D01*
X154720310Y-90579773D01*
X154852773Y-90447310D01*
X155008533Y-90343235D01*
X155008534Y-90343234D01*
X155181605Y-90271546D01*
X155365333Y-90235000D01*
X155552667Y-90235000D01*
X155736395Y-90271546D01*
G37*
G36*
X152336395Y-90271546D02*
G01*
X152509466Y-90343234D01*
X152509467Y-90343235D01*
X152665227Y-90447310D01*
X152797690Y-90579773D01*
X152797691Y-90579775D01*
X152901766Y-90735534D01*
X152973454Y-90908605D01*
X153010000Y-91092333D01*
X153010000Y-91279667D01*
X152973454Y-91463395D01*
X152901766Y-91636466D01*
X152850081Y-91713818D01*
X152797690Y-91792227D01*
X152665227Y-91924690D01*
X152586818Y-91977081D01*
X152509466Y-92028766D01*
X152336395Y-92100454D01*
X152152667Y-92137000D01*
X151965333Y-92137000D01*
X151781605Y-92100454D01*
X151608534Y-92028766D01*
X151531182Y-91977081D01*
X151452773Y-91924690D01*
X151320310Y-91792227D01*
X151267919Y-91713818D01*
X151216234Y-91636466D01*
X151144546Y-91463395D01*
X151108000Y-91279667D01*
X151108000Y-91092333D01*
X151144546Y-90908605D01*
X151216234Y-90735534D01*
X151320309Y-90579775D01*
X151320310Y-90579773D01*
X151452773Y-90447310D01*
X151608533Y-90343235D01*
X151608534Y-90343234D01*
X151781605Y-90271546D01*
X151965333Y-90235000D01*
X152152667Y-90235000D01*
X152336395Y-90271546D01*
G37*
G36*
X148936395Y-90271546D02*
G01*
X149109466Y-90343234D01*
X149109467Y-90343235D01*
X149265227Y-90447310D01*
X149397690Y-90579773D01*
X149397691Y-90579775D01*
X149501766Y-90735534D01*
X149573454Y-90908605D01*
X149610000Y-91092333D01*
X149610000Y-91279667D01*
X149573454Y-91463395D01*
X149501766Y-91636466D01*
X149450081Y-91713818D01*
X149397690Y-91792227D01*
X149265227Y-91924690D01*
X149186818Y-91977081D01*
X149109466Y-92028766D01*
X148936395Y-92100454D01*
X148752667Y-92137000D01*
X148565333Y-92137000D01*
X148381605Y-92100454D01*
X148208534Y-92028766D01*
X148131182Y-91977081D01*
X148052773Y-91924690D01*
X147920310Y-91792227D01*
X147867919Y-91713818D01*
X147816234Y-91636466D01*
X147744546Y-91463395D01*
X147708000Y-91279667D01*
X147708000Y-91092333D01*
X147744546Y-90908605D01*
X147816234Y-90735534D01*
X147920309Y-90579775D01*
X147920310Y-90579773D01*
X148052773Y-90447310D01*
X148208533Y-90343235D01*
X148208534Y-90343234D01*
X148381605Y-90271546D01*
X148565333Y-90235000D01*
X148752667Y-90235000D01*
X148936395Y-90271546D01*
G37*
G36*
X145536395Y-90271546D02*
G01*
X145709466Y-90343234D01*
X145709467Y-90343235D01*
X145865227Y-90447310D01*
X145997690Y-90579773D01*
X145997691Y-90579775D01*
X146101766Y-90735534D01*
X146173454Y-90908605D01*
X146210000Y-91092333D01*
X146210000Y-91279667D01*
X146173454Y-91463395D01*
X146101766Y-91636466D01*
X146050081Y-91713818D01*
X145997690Y-91792227D01*
X145865227Y-91924690D01*
X145786818Y-91977081D01*
X145709466Y-92028766D01*
X145536395Y-92100454D01*
X145352667Y-92137000D01*
X145165333Y-92137000D01*
X144981605Y-92100454D01*
X144808534Y-92028766D01*
X144731182Y-91977081D01*
X144652773Y-91924690D01*
X144520310Y-91792227D01*
X144467919Y-91713818D01*
X144416234Y-91636466D01*
X144344546Y-91463395D01*
X144308000Y-91279667D01*
X144308000Y-91092333D01*
X144344546Y-90908605D01*
X144416234Y-90735534D01*
X144520309Y-90579775D01*
X144520310Y-90579773D01*
X144652773Y-90447310D01*
X144808533Y-90343235D01*
X144808534Y-90343234D01*
X144981605Y-90271546D01*
X145165333Y-90235000D01*
X145352667Y-90235000D01*
X145536395Y-90271546D01*
G37*
G36*
X142810000Y-92137000D02*
G01*
X140908000Y-92137000D01*
X140908000Y-90235000D01*
X142810000Y-90235000D01*
X142810000Y-92137000D01*
G37*
G36*
X171231000Y-89951000D02*
G01*
X169129000Y-89951000D01*
X169129000Y-87849000D01*
X171231000Y-87849000D01*
X171231000Y-89951000D01*
G37*
G36*
X165486564Y-87889389D02*
G01*
X165677833Y-87968615D01*
X165677835Y-87968616D01*
X165849973Y-88083635D01*
X165996365Y-88230027D01*
X166111385Y-88402167D01*
X166190611Y-88593436D01*
X166231000Y-88796484D01*
X166231000Y-89003516D01*
X166190611Y-89206564D01*
X166111385Y-89397833D01*
X166111384Y-89397835D01*
X165996365Y-89569973D01*
X165849973Y-89716365D01*
X165677835Y-89831384D01*
X165677834Y-89831385D01*
X165677833Y-89831385D01*
X165486564Y-89910611D01*
X165283516Y-89951000D01*
X165076484Y-89951000D01*
X164873436Y-89910611D01*
X164682167Y-89831385D01*
X164682166Y-89831385D01*
X164682165Y-89831384D01*
X164510027Y-89716365D01*
X164363635Y-89569973D01*
X164248616Y-89397835D01*
X164248615Y-89397833D01*
X164169389Y-89206564D01*
X164129000Y-89003516D01*
X164129000Y-88796484D01*
X164169389Y-88593436D01*
X164248615Y-88402167D01*
X164363635Y-88230027D01*
X164510027Y-88083635D01*
X164682165Y-87968616D01*
X164682167Y-87968615D01*
X164873436Y-87889389D01*
X165076484Y-87849000D01*
X165283516Y-87849000D01*
X165486564Y-87889389D01*
G37*
G36*
X147236395Y-85191546D02*
G01*
X147409466Y-85263234D01*
X147409467Y-85263235D01*
X147565227Y-85367310D01*
X147697690Y-85499773D01*
X147697691Y-85499775D01*
X147801766Y-85655534D01*
X147873454Y-85828605D01*
X147910000Y-86012333D01*
X147910000Y-86199667D01*
X147873454Y-86383395D01*
X147801766Y-86556466D01*
X147801765Y-86556467D01*
X147697690Y-86712227D01*
X147565227Y-86844690D01*
X147486818Y-86897081D01*
X147409466Y-86948766D01*
X147236395Y-87020454D01*
X147052667Y-87057000D01*
X146865333Y-87057000D01*
X146681605Y-87020454D01*
X146508534Y-86948766D01*
X146431182Y-86897081D01*
X146352773Y-86844690D01*
X146220310Y-86712227D01*
X146116235Y-86556467D01*
X146116234Y-86556466D01*
X146044546Y-86383395D01*
X146008000Y-86199667D01*
X146008000Y-86012333D01*
X146044546Y-85828605D01*
X146116234Y-85655534D01*
X146220309Y-85499775D01*
X146220310Y-85499773D01*
X146352773Y-85367310D01*
X146508533Y-85263235D01*
X146508534Y-85263234D01*
X146681605Y-85191546D01*
X146865333Y-85155000D01*
X147052667Y-85155000D01*
X147236395Y-85191546D01*
G37*
G36*
X157436395Y-85191546D02*
G01*
X157609466Y-85263234D01*
X157609467Y-85263235D01*
X157765227Y-85367310D01*
X157897690Y-85499773D01*
X157897691Y-85499775D01*
X158001766Y-85655534D01*
X158073454Y-85828605D01*
X158110000Y-86012333D01*
X158110000Y-86199667D01*
X158073454Y-86383395D01*
X158001766Y-86556466D01*
X158001765Y-86556467D01*
X157897690Y-86712227D01*
X157765227Y-86844690D01*
X157686818Y-86897081D01*
X157609466Y-86948766D01*
X157436395Y-87020454D01*
X157252667Y-87057000D01*
X157065333Y-87057000D01*
X156881605Y-87020454D01*
X156708534Y-86948766D01*
X156631182Y-86897081D01*
X156552773Y-86844690D01*
X156420310Y-86712227D01*
X156316235Y-86556467D01*
X156316234Y-86556466D01*
X156244546Y-86383395D01*
X156208000Y-86199667D01*
X156208000Y-86012333D01*
X156244546Y-85828605D01*
X156316234Y-85655534D01*
X156420309Y-85499775D01*
X156420310Y-85499773D01*
X156552773Y-85367310D01*
X156708533Y-85263235D01*
X156708534Y-85263234D01*
X156881605Y-85191546D01*
X157065333Y-85155000D01*
X157252667Y-85155000D01*
X157436395Y-85191546D01*
G37*
G36*
X143836395Y-85191546D02*
G01*
X144009466Y-85263234D01*
X144009467Y-85263235D01*
X144165227Y-85367310D01*
X144297690Y-85499773D01*
X144297691Y-85499775D01*
X144401766Y-85655534D01*
X144473454Y-85828605D01*
X144510000Y-86012333D01*
X144510000Y-86199667D01*
X144473454Y-86383395D01*
X144401766Y-86556466D01*
X144401765Y-86556467D01*
X144297690Y-86712227D01*
X144165227Y-86844690D01*
X144086818Y-86897081D01*
X144009466Y-86948766D01*
X143836395Y-87020454D01*
X143652667Y-87057000D01*
X143465333Y-87057000D01*
X143281605Y-87020454D01*
X143108534Y-86948766D01*
X143031182Y-86897081D01*
X142952773Y-86844690D01*
X142820310Y-86712227D01*
X142716235Y-86556467D01*
X142716234Y-86556466D01*
X142644546Y-86383395D01*
X142608000Y-86199667D01*
X142608000Y-86012333D01*
X142644546Y-85828605D01*
X142716234Y-85655534D01*
X142820309Y-85499775D01*
X142820310Y-85499773D01*
X142952773Y-85367310D01*
X143108533Y-85263235D01*
X143108534Y-85263234D01*
X143281605Y-85191546D01*
X143465333Y-85155000D01*
X143652667Y-85155000D01*
X143836395Y-85191546D01*
G37*
G36*
X154036395Y-85191546D02*
G01*
X154209466Y-85263234D01*
X154209467Y-85263235D01*
X154365227Y-85367310D01*
X154497690Y-85499773D01*
X154497691Y-85499775D01*
X154601766Y-85655534D01*
X154673454Y-85828605D01*
X154710000Y-86012333D01*
X154710000Y-86199667D01*
X154673454Y-86383395D01*
X154601766Y-86556466D01*
X154601765Y-86556467D01*
X154497690Y-86712227D01*
X154365227Y-86844690D01*
X154286818Y-86897081D01*
X154209466Y-86948766D01*
X154036395Y-87020454D01*
X153852667Y-87057000D01*
X153665333Y-87057000D01*
X153481605Y-87020454D01*
X153308534Y-86948766D01*
X153231182Y-86897081D01*
X153152773Y-86844690D01*
X153020310Y-86712227D01*
X152916235Y-86556467D01*
X152916234Y-86556466D01*
X152844546Y-86383395D01*
X152808000Y-86199667D01*
X152808000Y-86012333D01*
X152844546Y-85828605D01*
X152916234Y-85655534D01*
X153020309Y-85499775D01*
X153020310Y-85499773D01*
X153152773Y-85367310D01*
X153308533Y-85263235D01*
X153308534Y-85263234D01*
X153481605Y-85191546D01*
X153665333Y-85155000D01*
X153852667Y-85155000D01*
X154036395Y-85191546D01*
G37*
G36*
X150636395Y-85191546D02*
G01*
X150809466Y-85263234D01*
X150809467Y-85263235D01*
X150965227Y-85367310D01*
X151097690Y-85499773D01*
X151097691Y-85499775D01*
X151201766Y-85655534D01*
X151273454Y-85828605D01*
X151310000Y-86012333D01*
X151310000Y-86199667D01*
X151273454Y-86383395D01*
X151201766Y-86556466D01*
X151201765Y-86556467D01*
X151097690Y-86712227D01*
X150965227Y-86844690D01*
X150886818Y-86897081D01*
X150809466Y-86948766D01*
X150636395Y-87020454D01*
X150452667Y-87057000D01*
X150265333Y-87057000D01*
X150081605Y-87020454D01*
X149908534Y-86948766D01*
X149831182Y-86897081D01*
X149752773Y-86844690D01*
X149620310Y-86712227D01*
X149516235Y-86556467D01*
X149516234Y-86556466D01*
X149444546Y-86383395D01*
X149408000Y-86199667D01*
X149408000Y-86012333D01*
X149444546Y-85828605D01*
X149516234Y-85655534D01*
X149620309Y-85499775D01*
X149620310Y-85499773D01*
X149752773Y-85367310D01*
X149908533Y-85263235D01*
X149908534Y-85263234D01*
X150081605Y-85191546D01*
X150265333Y-85155000D01*
X150452667Y-85155000D01*
X150636395Y-85191546D01*
G37*
G36*
X133820000Y-86703000D02*
G01*
X132118000Y-86703000D01*
X132118000Y-85001000D01*
X133820000Y-85001000D01*
X133820000Y-86703000D01*
G37*
G36*
X130717228Y-85033703D02*
G01*
X130872100Y-85097853D01*
X131011481Y-85190985D01*
X131130015Y-85309519D01*
X131223147Y-85448900D01*
X131287297Y-85603772D01*
X131320000Y-85768184D01*
X131320000Y-85935816D01*
X131287297Y-86100228D01*
X131223147Y-86255100D01*
X131130015Y-86394481D01*
X131011481Y-86513015D01*
X130872100Y-86606147D01*
X130717228Y-86670297D01*
X130552816Y-86703000D01*
X130385184Y-86703000D01*
X130220772Y-86670297D01*
X130065900Y-86606147D01*
X129926519Y-86513015D01*
X129807985Y-86394481D01*
X129714853Y-86255100D01*
X129650703Y-86100228D01*
X129618000Y-85935816D01*
X129618000Y-85768184D01*
X129650703Y-85603772D01*
X129714853Y-85448900D01*
X129807985Y-85309519D01*
X129926519Y-85190985D01*
X130065900Y-85097853D01*
X130220772Y-85033703D01*
X130385184Y-85001000D01*
X130552816Y-85001000D01*
X130717228Y-85033703D01*
G37*
M02*
