G04 #@! TF.GenerationSoftware,KiCad,Pcbnew,5.1.6-c6e7f7d~87~ubuntu18.04.1*
G04 #@! TF.CreationDate,2020-08-21T12:14:16-04:00*
G04 #@! TF.ProjectId,lm3886_stereo_amp,6c6d3338-3836-45f7-9374-6572656f5f61,1*
G04 #@! TF.SameCoordinates,Original*
G04 #@! TF.FileFunction,Copper,L1,Top*
G04 #@! TF.FilePolarity,Positive*
%FSLAX46Y46*%
G04 Gerber Fmt 4.6, Leading zero omitted, Abs format (unit mm)*
G04 Created by KiCad (PCBNEW 5.1.6-c6e7f7d~87~ubuntu18.04.1) date 2020-08-21 12:14:16*
%MOMM*%
%LPD*%
G01*
G04 APERTURE LIST*
G04 #@! TA.AperFunction,ComponentPad*
%ADD10C,1.600000*%
G04 #@! TD*
G04 #@! TA.AperFunction,ComponentPad*
%ADD11R,1.600000X1.600000*%
G04 #@! TD*
G04 #@! TA.AperFunction,ComponentPad*
%ADD12C,2.999740*%
G04 #@! TD*
G04 #@! TA.AperFunction,ComponentPad*
%ADD13R,2.999740X2.999740*%
G04 #@! TD*
G04 #@! TA.AperFunction,ComponentPad*
%ADD14C,3.500120*%
G04 #@! TD*
G04 #@! TA.AperFunction,ComponentPad*
%ADD15R,3.500120X3.500120*%
G04 #@! TD*
G04 #@! TA.AperFunction,ComponentPad*
%ADD16O,1.800000X1.800000*%
G04 #@! TD*
G04 #@! TA.AperFunction,ComponentPad*
%ADD17R,1.800000X1.800000*%
G04 #@! TD*
G04 #@! TA.AperFunction,ComponentPad*
%ADD18O,2.400000X2.400000*%
G04 #@! TD*
G04 #@! TA.AperFunction,ComponentPad*
%ADD19C,2.400000*%
G04 #@! TD*
G04 #@! TA.AperFunction,ComponentPad*
%ADD20C,2.000000*%
G04 #@! TD*
G04 #@! TA.AperFunction,ComponentPad*
%ADD21R,2.000000X2.000000*%
G04 #@! TD*
G04 #@! TA.AperFunction,Conductor*
%ADD22C,0.762000*%
G04 #@! TD*
G04 #@! TA.AperFunction,Conductor*
%ADD23C,1.143000*%
G04 #@! TD*
G04 #@! TA.AperFunction,Conductor*
%ADD24C,0.254000*%
G04 #@! TD*
G04 APERTURE END LIST*
D10*
X152828000Y-103124000D03*
X147828000Y-103124000D03*
X163322000Y-104330500D03*
X163322000Y-99330500D03*
X167386000Y-104314000D03*
X167386000Y-99314000D03*
X130469000Y-85852000D03*
D11*
X132969000Y-85852000D03*
D10*
X133390000Y-92329000D03*
D11*
X135890000Y-92329000D03*
G04 #@! TA.AperFunction,SMDPad,CuDef*
G36*
G01*
X137100000Y-84385999D02*
X137100000Y-85286001D01*
G75*
G02*
X136850001Y-85536000I-249999J0D01*
G01*
X136199999Y-85536000D01*
G75*
G02*
X135950000Y-85286001I0J249999D01*
G01*
X135950000Y-84385999D01*
G75*
G02*
X136199999Y-84136000I249999J0D01*
G01*
X136850001Y-84136000D01*
G75*
G02*
X137100000Y-84385999I0J-249999D01*
G01*
G37*
G04 #@! TD.AperFunction*
G04 #@! TA.AperFunction,SMDPad,CuDef*
G36*
G01*
X139150000Y-84385999D02*
X139150000Y-85286001D01*
G75*
G02*
X138900001Y-85536000I-249999J0D01*
G01*
X138249999Y-85536000D01*
G75*
G02*
X138000000Y-85286001I0J249999D01*
G01*
X138000000Y-84385999D01*
G75*
G02*
X138249999Y-84136000I249999J0D01*
G01*
X138900001Y-84136000D01*
G75*
G02*
X139150000Y-84385999I0J-249999D01*
G01*
G37*
G04 #@! TD.AperFunction*
G04 #@! TA.AperFunction,SMDPad,CuDef*
G36*
G01*
X137091000Y-87687999D02*
X137091000Y-88588001D01*
G75*
G02*
X136841001Y-88838000I-249999J0D01*
G01*
X136190999Y-88838000D01*
G75*
G02*
X135941000Y-88588001I0J249999D01*
G01*
X135941000Y-87687999D01*
G75*
G02*
X136190999Y-87438000I249999J0D01*
G01*
X136841001Y-87438000D01*
G75*
G02*
X137091000Y-87687999I0J-249999D01*
G01*
G37*
G04 #@! TD.AperFunction*
G04 #@! TA.AperFunction,SMDPad,CuDef*
G36*
G01*
X139141000Y-87687999D02*
X139141000Y-88588001D01*
G75*
G02*
X138891001Y-88838000I-249999J0D01*
G01*
X138240999Y-88838000D01*
G75*
G02*
X137991000Y-88588001I0J249999D01*
G01*
X137991000Y-87687999D01*
G75*
G02*
X138240999Y-87438000I249999J0D01*
G01*
X138891001Y-87438000D01*
G75*
G02*
X139141000Y-87687999I0J-249999D01*
G01*
G37*
G04 #@! TD.AperFunction*
G04 #@! TA.AperFunction,SMDPad,CuDef*
G36*
G01*
X154746000Y-95065001D02*
X154746000Y-94164999D01*
G75*
G02*
X154995999Y-93915000I249999J0D01*
G01*
X155646001Y-93915000D01*
G75*
G02*
X155896000Y-94164999I0J-249999D01*
G01*
X155896000Y-95065001D01*
G75*
G02*
X155646001Y-95315000I-249999J0D01*
G01*
X154995999Y-95315000D01*
G75*
G02*
X154746000Y-95065001I0J249999D01*
G01*
G37*
G04 #@! TD.AperFunction*
G04 #@! TA.AperFunction,SMDPad,CuDef*
G36*
G01*
X152696000Y-95065001D02*
X152696000Y-94164999D01*
G75*
G02*
X152945999Y-93915000I249999J0D01*
G01*
X153596001Y-93915000D01*
G75*
G02*
X153846000Y-94164999I0J-249999D01*
G01*
X153846000Y-95065001D01*
G75*
G02*
X153596001Y-95315000I-249999J0D01*
G01*
X152945999Y-95315000D01*
G75*
G02*
X152696000Y-95065001I0J249999D01*
G01*
G37*
G04 #@! TD.AperFunction*
D12*
X163576000Y-107950000D03*
D13*
X167386000Y-107950000D03*
D14*
X125857000Y-108585000D03*
X130302000Y-108585000D03*
D15*
X134747000Y-108585000D03*
D14*
X152654000Y-108458000D03*
D15*
X147574000Y-108458000D03*
D16*
X158859000Y-91186000D03*
X157159000Y-86106000D03*
X155459000Y-91186000D03*
X153759000Y-86106000D03*
X152059000Y-91186000D03*
X150359000Y-86106000D03*
X148659000Y-91186000D03*
X146959000Y-86106000D03*
X145259000Y-91186000D03*
X143559000Y-86106000D03*
D17*
X141859000Y-91186000D03*
D18*
X142113000Y-109220000D03*
D19*
X142113000Y-93980000D03*
G04 #@! TA.AperFunction,SMDPad,CuDef*
G36*
G01*
X161347999Y-85277000D02*
X162248001Y-85277000D01*
G75*
G02*
X162498000Y-85526999I0J-249999D01*
G01*
X162498000Y-86177001D01*
G75*
G02*
X162248001Y-86427000I-249999J0D01*
G01*
X161347999Y-86427000D01*
G75*
G02*
X161098000Y-86177001I0J249999D01*
G01*
X161098000Y-85526999D01*
G75*
G02*
X161347999Y-85277000I249999J0D01*
G01*
G37*
G04 #@! TD.AperFunction*
G04 #@! TA.AperFunction,SMDPad,CuDef*
G36*
G01*
X161347999Y-83227000D02*
X162248001Y-83227000D01*
G75*
G02*
X162498000Y-83476999I0J-249999D01*
G01*
X162498000Y-84127001D01*
G75*
G02*
X162248001Y-84377000I-249999J0D01*
G01*
X161347999Y-84377000D01*
G75*
G02*
X161098000Y-84127001I0J249999D01*
G01*
X161098000Y-83476999D01*
G75*
G02*
X161347999Y-83227000I249999J0D01*
G01*
G37*
G04 #@! TD.AperFunction*
G04 #@! TA.AperFunction,SMDPad,CuDef*
G36*
G01*
X150174000Y-95065001D02*
X150174000Y-94164999D01*
G75*
G02*
X150423999Y-93915000I249999J0D01*
G01*
X151074001Y-93915000D01*
G75*
G02*
X151324000Y-94164999I0J-249999D01*
G01*
X151324000Y-95065001D01*
G75*
G02*
X151074001Y-95315000I-249999J0D01*
G01*
X150423999Y-95315000D01*
G75*
G02*
X150174000Y-95065001I0J249999D01*
G01*
G37*
G04 #@! TD.AperFunction*
G04 #@! TA.AperFunction,SMDPad,CuDef*
G36*
G01*
X148124000Y-95065001D02*
X148124000Y-94164999D01*
G75*
G02*
X148373999Y-93915000I249999J0D01*
G01*
X149024001Y-93915000D01*
G75*
G02*
X149274000Y-94164999I0J-249999D01*
G01*
X149274000Y-95065001D01*
G75*
G02*
X149024001Y-95315000I-249999J0D01*
G01*
X148373999Y-95315000D01*
G75*
G02*
X148124000Y-95065001I0J249999D01*
G01*
G37*
G04 #@! TD.AperFunction*
G04 #@! TA.AperFunction,SMDPad,CuDef*
G36*
G01*
X150192000Y-98240001D02*
X150192000Y-97339999D01*
G75*
G02*
X150441999Y-97090000I249999J0D01*
G01*
X151092001Y-97090000D01*
G75*
G02*
X151342000Y-97339999I0J-249999D01*
G01*
X151342000Y-98240001D01*
G75*
G02*
X151092001Y-98490000I-249999J0D01*
G01*
X150441999Y-98490000D01*
G75*
G02*
X150192000Y-98240001I0J249999D01*
G01*
G37*
G04 #@! TD.AperFunction*
G04 #@! TA.AperFunction,SMDPad,CuDef*
G36*
G01*
X148142000Y-98240001D02*
X148142000Y-97339999D01*
G75*
G02*
X148391999Y-97090000I249999J0D01*
G01*
X149042001Y-97090000D01*
G75*
G02*
X149292000Y-97339999I0J-249999D01*
G01*
X149292000Y-98240001D01*
G75*
G02*
X149042001Y-98490000I-249999J0D01*
G01*
X148391999Y-98490000D01*
G75*
G02*
X148142000Y-98240001I0J249999D01*
G01*
G37*
G04 #@! TD.AperFunction*
G04 #@! TA.AperFunction,SMDPad,CuDef*
G36*
G01*
X159064000Y-95065001D02*
X159064000Y-94164999D01*
G75*
G02*
X159313999Y-93915000I249999J0D01*
G01*
X159964001Y-93915000D01*
G75*
G02*
X160214000Y-94164999I0J-249999D01*
G01*
X160214000Y-95065001D01*
G75*
G02*
X159964001Y-95315000I-249999J0D01*
G01*
X159313999Y-95315000D01*
G75*
G02*
X159064000Y-95065001I0J249999D01*
G01*
G37*
G04 #@! TD.AperFunction*
G04 #@! TA.AperFunction,SMDPad,CuDef*
G36*
G01*
X157014000Y-95065001D02*
X157014000Y-94164999D01*
G75*
G02*
X157263999Y-93915000I249999J0D01*
G01*
X157914001Y-93915000D01*
G75*
G02*
X158164000Y-94164999I0J-249999D01*
G01*
X158164000Y-95065001D01*
G75*
G02*
X157914001Y-95315000I-249999J0D01*
G01*
X157263999Y-95315000D01*
G75*
G02*
X157014000Y-95065001I0J249999D01*
G01*
G37*
G04 #@! TD.AperFunction*
G04 #@! TA.AperFunction,SMDPad,CuDef*
G36*
G01*
X159064000Y-98240001D02*
X159064000Y-97339999D01*
G75*
G02*
X159313999Y-97090000I249999J0D01*
G01*
X159964001Y-97090000D01*
G75*
G02*
X160214000Y-97339999I0J-249999D01*
G01*
X160214000Y-98240001D01*
G75*
G02*
X159964001Y-98490000I-249999J0D01*
G01*
X159313999Y-98490000D01*
G75*
G02*
X159064000Y-98240001I0J249999D01*
G01*
G37*
G04 #@! TD.AperFunction*
G04 #@! TA.AperFunction,SMDPad,CuDef*
G36*
G01*
X157014000Y-98240001D02*
X157014000Y-97339999D01*
G75*
G02*
X157263999Y-97090000I249999J0D01*
G01*
X157914001Y-97090000D01*
G75*
G02*
X158164000Y-97339999I0J-249999D01*
G01*
X158164000Y-98240001D01*
G75*
G02*
X157914001Y-98490000I-249999J0D01*
G01*
X157263999Y-98490000D01*
G75*
G02*
X157014000Y-98240001I0J249999D01*
G01*
G37*
G04 #@! TD.AperFunction*
G04 #@! TA.AperFunction,SMDPad,CuDef*
G36*
G01*
X158164000Y-100641999D02*
X158164000Y-101542001D01*
G75*
G02*
X157914001Y-101792000I-249999J0D01*
G01*
X157263999Y-101792000D01*
G75*
G02*
X157014000Y-101542001I0J249999D01*
G01*
X157014000Y-100641999D01*
G75*
G02*
X157263999Y-100392000I249999J0D01*
G01*
X157914001Y-100392000D01*
G75*
G02*
X158164000Y-100641999I0J-249999D01*
G01*
G37*
G04 #@! TD.AperFunction*
G04 #@! TA.AperFunction,SMDPad,CuDef*
G36*
G01*
X160214000Y-100641999D02*
X160214000Y-101542001D01*
G75*
G02*
X159964001Y-101792000I-249999J0D01*
G01*
X159313999Y-101792000D01*
G75*
G02*
X159064000Y-101542001I0J249999D01*
G01*
X159064000Y-100641999D01*
G75*
G02*
X159313999Y-100392000I249999J0D01*
G01*
X159964001Y-100392000D01*
G75*
G02*
X160214000Y-100641999I0J-249999D01*
G01*
G37*
G04 #@! TD.AperFunction*
D20*
X124032000Y-93091000D03*
D21*
X129032000Y-93091000D03*
D20*
X132160000Y-100711000D03*
D21*
X137160000Y-100711000D03*
D20*
X165180000Y-88900000D03*
D21*
X170180000Y-88900000D03*
D22*
X167386000Y-104314000D02*
X167386000Y-107950000D01*
X165608000Y-101092000D02*
X167386000Y-99314000D01*
X159639000Y-101092000D02*
X165608000Y-101092000D01*
X159639000Y-97790000D02*
X159639000Y-101092000D01*
X158178500Y-96139000D02*
X157589000Y-96728500D01*
X157589000Y-96728500D02*
X157589000Y-97790000D01*
X162052000Y-96139000D02*
X158178500Y-96139000D01*
X163322000Y-99394000D02*
X163322000Y-97409000D01*
X163322000Y-97409000D02*
X162052000Y-96139000D01*
X164465000Y-94615000D02*
X170180000Y-88900000D01*
X159639000Y-94615000D02*
X164465000Y-94615000D01*
X155321000Y-94615000D02*
X157589000Y-94615000D01*
X155459000Y-94477000D02*
X155321000Y-94615000D01*
X155459000Y-91186000D02*
X155459000Y-94477000D01*
X152146000Y-97790000D02*
X150767000Y-97790000D01*
X155321000Y-94615000D02*
X152146000Y-97790000D01*
X150749000Y-94615000D02*
X153271000Y-94615000D01*
D23*
X145415000Y-103124000D02*
X147828000Y-103124000D01*
X142113000Y-109220000D02*
X142113000Y-106426000D01*
X142113000Y-106426000D02*
X145415000Y-103124000D01*
X147759001Y-90286001D02*
X148659000Y-91186000D01*
X146987499Y-89514499D02*
X147759001Y-90286001D01*
X143530501Y-89514499D02*
X146987499Y-89514499D01*
X141859000Y-91186000D02*
X143530501Y-89514499D01*
X140716000Y-92329000D02*
X141859000Y-91186000D01*
X135890000Y-92329000D02*
X140716000Y-92329000D01*
X134747000Y-103124000D02*
X137160000Y-100711000D01*
X134747000Y-108585000D02*
X134747000Y-103124000D01*
X135890000Y-99441000D02*
X135890000Y-92329000D01*
X137160000Y-100711000D02*
X135890000Y-99441000D01*
X138566000Y-88446500D02*
X138566000Y-88138000D01*
X135890000Y-92329000D02*
X135890000Y-91122500D01*
X135890000Y-91122500D02*
X138566000Y-88446500D01*
X124032000Y-92289000D02*
X130469000Y-85852000D01*
X124032000Y-93091000D02*
X124032000Y-92289000D01*
X130977002Y-84212628D02*
X135901628Y-84212628D01*
X135901628Y-84212628D02*
X136525000Y-84836000D01*
X130469000Y-84720630D02*
X130977002Y-84212628D01*
X130469000Y-85852000D02*
X130469000Y-84720630D01*
X146059001Y-85206001D02*
X146959000Y-86106000D01*
X144217490Y-83364490D02*
X146059001Y-85206001D01*
X137196510Y-83364490D02*
X144217490Y-83364490D01*
X136525000Y-84036000D02*
X137196510Y-83364490D01*
X136525000Y-84836000D02*
X136525000Y-84036000D01*
X125857000Y-94916000D02*
X124032000Y-93091000D01*
X125857000Y-108585000D02*
X125857000Y-94916000D01*
D22*
X161798000Y-83802000D02*
X161615989Y-83619989D01*
X149445011Y-83619989D02*
X146959000Y-86106000D01*
X161615989Y-83619989D02*
X149445011Y-83619989D01*
D23*
X142465000Y-93980000D02*
X145259000Y-91186000D01*
X142113000Y-93980000D02*
X142465000Y-93980000D01*
X148688000Y-94615000D02*
X145259000Y-91186000D01*
X148699000Y-94615000D02*
X148688000Y-94615000D01*
X147574000Y-108391136D02*
X150095010Y-105870126D01*
X147574000Y-108458000D02*
X147574000Y-108391136D01*
X150095010Y-105870126D02*
X150095010Y-99337646D01*
X150095010Y-99337646D02*
X148699000Y-97941636D01*
X148699000Y-95415000D02*
X148699000Y-94615000D01*
X148699000Y-97941636D02*
X148699000Y-95415000D01*
D22*
X160528000Y-84582000D02*
X161798000Y-85852000D01*
X153759000Y-86106000D02*
X155283000Y-84582000D01*
X155283000Y-84582000D02*
X160528000Y-84582000D01*
D24*
G36*
X130119750Y-83355376D02*
G01*
X130081967Y-83401415D01*
X129657782Y-83825600D01*
X129611749Y-83863378D01*
X129573971Y-83909411D01*
X129460979Y-84047092D01*
X129418267Y-84127001D01*
X129348947Y-84256689D01*
X129279958Y-84484115D01*
X129262740Y-84658933D01*
X129256663Y-84720630D01*
X129262500Y-84779891D01*
X129262500Y-85074724D01*
X129197320Y-85172273D01*
X129089147Y-85433426D01*
X129066258Y-85548494D01*
X123220782Y-91393970D01*
X123174749Y-91431748D01*
X123136971Y-91477781D01*
X123023979Y-91615462D01*
X123002599Y-91655462D01*
X122911947Y-91825059D01*
X122879831Y-91930930D01*
X122762013Y-92048748D01*
X122583082Y-92316537D01*
X122459832Y-92614088D01*
X122397000Y-92929967D01*
X122397000Y-93252033D01*
X122459832Y-93567912D01*
X122583082Y-93865463D01*
X122762013Y-94133252D01*
X122989748Y-94360987D01*
X123257537Y-94539918D01*
X123555088Y-94663168D01*
X123870967Y-94726000D01*
X123960752Y-94726000D01*
X124650501Y-95415749D01*
X124650500Y-106522670D01*
X124336613Y-106732403D01*
X124004403Y-107064613D01*
X123743387Y-107455251D01*
X123563597Y-107889304D01*
X123471940Y-108350092D01*
X123471940Y-108819908D01*
X123563597Y-109280696D01*
X123743387Y-109714749D01*
X124004403Y-110105387D01*
X124336613Y-110437597D01*
X124727251Y-110698613D01*
X125161304Y-110878403D01*
X125622092Y-110970060D01*
X126091908Y-110970060D01*
X126552696Y-110878403D01*
X126986749Y-110698613D01*
X127377387Y-110437597D01*
X127560333Y-110254651D01*
X128811954Y-110254651D01*
X128998039Y-110595815D01*
X129415384Y-110811568D01*
X129866802Y-110941755D01*
X130334944Y-110981374D01*
X130801821Y-110928901D01*
X131249489Y-110786354D01*
X131605961Y-110595815D01*
X131792046Y-110254651D01*
X130302000Y-108764605D01*
X128811954Y-110254651D01*
X127560333Y-110254651D01*
X127709597Y-110105387D01*
X127970613Y-109714749D01*
X128076942Y-109458047D01*
X128100646Y-109532489D01*
X128291185Y-109888961D01*
X128632349Y-110075046D01*
X130122395Y-108585000D01*
X128632349Y-107094954D01*
X128291185Y-107281039D01*
X128075432Y-107698384D01*
X128073745Y-107704234D01*
X127970613Y-107455251D01*
X127709597Y-107064613D01*
X127560333Y-106915349D01*
X128811954Y-106915349D01*
X130302000Y-108405395D01*
X131792046Y-106915349D01*
X131605961Y-106574185D01*
X131188616Y-106358432D01*
X130737198Y-106228245D01*
X130269056Y-106188626D01*
X129802179Y-106241099D01*
X129354511Y-106383646D01*
X128998039Y-106574185D01*
X128811954Y-106915349D01*
X127560333Y-106915349D01*
X127377387Y-106732403D01*
X127063500Y-106522670D01*
X127063500Y-101846413D01*
X131204192Y-101846413D01*
X131299956Y-102110814D01*
X131589571Y-102251704D01*
X131901108Y-102333384D01*
X132222595Y-102352718D01*
X132541675Y-102308961D01*
X132846088Y-102203795D01*
X133020044Y-102110814D01*
X133115808Y-101846413D01*
X132160000Y-100890605D01*
X131204192Y-101846413D01*
X127063500Y-101846413D01*
X127063500Y-100773595D01*
X130518282Y-100773595D01*
X130562039Y-101092675D01*
X130667205Y-101397088D01*
X130760186Y-101571044D01*
X131024587Y-101666808D01*
X131980395Y-100711000D01*
X132339605Y-100711000D01*
X133295413Y-101666808D01*
X133559814Y-101571044D01*
X133700704Y-101281429D01*
X133782384Y-100969892D01*
X133801718Y-100648405D01*
X133757961Y-100329325D01*
X133652795Y-100024912D01*
X133559814Y-99850956D01*
X133295413Y-99755192D01*
X132339605Y-100711000D01*
X131980395Y-100711000D01*
X131024587Y-99755192D01*
X130760186Y-99850956D01*
X130619296Y-100140571D01*
X130537616Y-100452108D01*
X130518282Y-100773595D01*
X127063500Y-100773595D01*
X127063500Y-99575587D01*
X131204192Y-99575587D01*
X132160000Y-100531395D01*
X133115808Y-99575587D01*
X133020044Y-99311186D01*
X132730429Y-99170296D01*
X132418892Y-99088616D01*
X132097405Y-99069282D01*
X131778325Y-99113039D01*
X131473912Y-99218205D01*
X131299956Y-99311186D01*
X131204192Y-99575587D01*
X127063500Y-99575587D01*
X127063500Y-94975261D01*
X127069337Y-94916000D01*
X127063500Y-94856737D01*
X127046042Y-94679485D01*
X126977053Y-94452059D01*
X126977053Y-94452058D01*
X126865021Y-94242461D01*
X126775395Y-94133252D01*
X126740721Y-94091000D01*
X127393928Y-94091000D01*
X127406188Y-94215482D01*
X127442498Y-94335180D01*
X127501463Y-94445494D01*
X127580815Y-94542185D01*
X127677506Y-94621537D01*
X127787820Y-94680502D01*
X127907518Y-94716812D01*
X128032000Y-94729072D01*
X128746250Y-94726000D01*
X128905000Y-94567250D01*
X128905000Y-93218000D01*
X129159000Y-93218000D01*
X129159000Y-94567250D01*
X129317750Y-94726000D01*
X130032000Y-94729072D01*
X130156482Y-94716812D01*
X130276180Y-94680502D01*
X130386494Y-94621537D01*
X130483185Y-94542185D01*
X130562537Y-94445494D01*
X130621502Y-94335180D01*
X130657812Y-94215482D01*
X130670072Y-94091000D01*
X130667000Y-93376750D01*
X130611952Y-93321702D01*
X132576903Y-93321702D01*
X132648486Y-93565671D01*
X132903996Y-93686571D01*
X133178184Y-93755300D01*
X133460512Y-93769217D01*
X133740130Y-93727787D01*
X134006292Y-93632603D01*
X134131514Y-93565671D01*
X134203097Y-93321702D01*
X133390000Y-92508605D01*
X132576903Y-93321702D01*
X130611952Y-93321702D01*
X130508250Y-93218000D01*
X129159000Y-93218000D01*
X128905000Y-93218000D01*
X127555750Y-93218000D01*
X127397000Y-93376750D01*
X127393928Y-94091000D01*
X126740721Y-94091000D01*
X126714252Y-94058748D01*
X126668213Y-94020965D01*
X125667000Y-93019752D01*
X125667000Y-92929967D01*
X125604168Y-92614088D01*
X125548223Y-92479025D01*
X125936248Y-92091000D01*
X127393928Y-92091000D01*
X127397000Y-92805250D01*
X127555750Y-92964000D01*
X128905000Y-92964000D01*
X128905000Y-91614750D01*
X129159000Y-91614750D01*
X129159000Y-92964000D01*
X130508250Y-92964000D01*
X130667000Y-92805250D01*
X130668745Y-92399512D01*
X131949783Y-92399512D01*
X131991213Y-92679130D01*
X132086397Y-92945292D01*
X132153329Y-93070514D01*
X132397298Y-93142097D01*
X133210395Y-92329000D01*
X132397298Y-91515903D01*
X132153329Y-91587486D01*
X132032429Y-91842996D01*
X131963700Y-92117184D01*
X131949783Y-92399512D01*
X130668745Y-92399512D01*
X130670072Y-92091000D01*
X130657812Y-91966518D01*
X130621502Y-91846820D01*
X130562537Y-91736506D01*
X130483185Y-91639815D01*
X130386494Y-91560463D01*
X130276180Y-91501498D01*
X130156482Y-91465188D01*
X130032000Y-91452928D01*
X129317750Y-91456000D01*
X129159000Y-91614750D01*
X128905000Y-91614750D01*
X128746250Y-91456000D01*
X128032000Y-91452928D01*
X127907518Y-91465188D01*
X127787820Y-91501498D01*
X127677506Y-91560463D01*
X127580815Y-91639815D01*
X127501463Y-91736506D01*
X127442498Y-91846820D01*
X127406188Y-91966518D01*
X127393928Y-92091000D01*
X125936248Y-92091000D01*
X126690950Y-91336298D01*
X132576903Y-91336298D01*
X133390000Y-92149395D01*
X134203097Y-91336298D01*
X134131514Y-91092329D01*
X133876004Y-90971429D01*
X133601816Y-90902700D01*
X133319488Y-90888783D01*
X133039870Y-90930213D01*
X132773708Y-91025397D01*
X132648486Y-91092329D01*
X132576903Y-91336298D01*
X126690950Y-91336298D01*
X130589248Y-87438000D01*
X135302928Y-87438000D01*
X135306000Y-87852250D01*
X135464750Y-88011000D01*
X136389000Y-88011000D01*
X136389000Y-86961750D01*
X136230250Y-86803000D01*
X135941000Y-86799928D01*
X135816518Y-86812188D01*
X135696820Y-86848498D01*
X135586506Y-86907463D01*
X135489815Y-86986815D01*
X135410463Y-87083506D01*
X135351498Y-87193820D01*
X135315188Y-87313518D01*
X135302928Y-87438000D01*
X130589248Y-87438000D01*
X130772506Y-87254742D01*
X130887574Y-87231853D01*
X131148727Y-87123680D01*
X131383759Y-86966637D01*
X131550339Y-86800057D01*
X131579498Y-86896180D01*
X131638463Y-87006494D01*
X131717815Y-87103185D01*
X131814506Y-87182537D01*
X131924820Y-87241502D01*
X132044518Y-87277812D01*
X132169000Y-87290072D01*
X132683250Y-87287000D01*
X132842000Y-87128250D01*
X132842000Y-85979000D01*
X133096000Y-85979000D01*
X133096000Y-87128250D01*
X133254750Y-87287000D01*
X133769000Y-87290072D01*
X133893482Y-87277812D01*
X134013180Y-87241502D01*
X134123494Y-87182537D01*
X134220185Y-87103185D01*
X134299537Y-87006494D01*
X134358502Y-86896180D01*
X134394812Y-86776482D01*
X134407072Y-86652000D01*
X134404000Y-86137750D01*
X134245250Y-85979000D01*
X133096000Y-85979000D01*
X132842000Y-85979000D01*
X132822000Y-85979000D01*
X132822000Y-85725000D01*
X132842000Y-85725000D01*
X132842000Y-85705000D01*
X133096000Y-85705000D01*
X133096000Y-85725000D01*
X134245250Y-85725000D01*
X134404000Y-85566250D01*
X134404879Y-85419128D01*
X135325040Y-85419128D01*
X135328992Y-85459255D01*
X135379528Y-85625851D01*
X135461595Y-85779387D01*
X135572038Y-85913962D01*
X135706613Y-86024405D01*
X135860149Y-86106472D01*
X136026745Y-86157008D01*
X136199999Y-86174072D01*
X136850001Y-86174072D01*
X137023255Y-86157008D01*
X137189851Y-86106472D01*
X137343387Y-86024405D01*
X137477962Y-85913962D01*
X137483342Y-85907406D01*
X137548815Y-85987185D01*
X137645506Y-86066537D01*
X137755820Y-86125502D01*
X137875518Y-86161812D01*
X138000000Y-86174072D01*
X138289250Y-86171000D01*
X138448000Y-86012250D01*
X138448000Y-84963000D01*
X138702000Y-84963000D01*
X138702000Y-86012250D01*
X138860750Y-86171000D01*
X139150000Y-86174072D01*
X139274482Y-86161812D01*
X139394180Y-86125502D01*
X139504494Y-86066537D01*
X139601185Y-85987185D01*
X139680537Y-85890494D01*
X139739502Y-85780180D01*
X139775812Y-85660482D01*
X139788072Y-85536000D01*
X139785000Y-85121750D01*
X139626250Y-84963000D01*
X138702000Y-84963000D01*
X138448000Y-84963000D01*
X138428000Y-84963000D01*
X138428000Y-84709000D01*
X138448000Y-84709000D01*
X138448000Y-84689000D01*
X138702000Y-84689000D01*
X138702000Y-84709000D01*
X139626250Y-84709000D01*
X139764260Y-84570990D01*
X143717742Y-84570990D01*
X143719631Y-84572879D01*
X143710184Y-84571000D01*
X143407816Y-84571000D01*
X143111257Y-84629989D01*
X142831905Y-84745701D01*
X142580495Y-84913688D01*
X142366688Y-85127495D01*
X142198701Y-85378905D01*
X142082989Y-85658257D01*
X142024000Y-85954816D01*
X142024000Y-86257184D01*
X142082989Y-86553743D01*
X142198701Y-86833095D01*
X142366688Y-87084505D01*
X142580495Y-87298312D01*
X142831905Y-87466299D01*
X143111257Y-87582011D01*
X143407816Y-87641000D01*
X143710184Y-87641000D01*
X144006743Y-87582011D01*
X144286095Y-87466299D01*
X144537505Y-87298312D01*
X144751312Y-87084505D01*
X144919299Y-86833095D01*
X145035011Y-86553743D01*
X145094000Y-86257184D01*
X145094000Y-85954816D01*
X145092121Y-85945369D01*
X145428982Y-86282230D01*
X145482989Y-86553743D01*
X145598701Y-86833095D01*
X145766688Y-87084505D01*
X145980495Y-87298312D01*
X146231905Y-87466299D01*
X146511257Y-87582011D01*
X146807816Y-87641000D01*
X147110184Y-87641000D01*
X147406743Y-87582011D01*
X147686095Y-87466299D01*
X147937505Y-87298312D01*
X148151312Y-87084505D01*
X148319299Y-86833095D01*
X148435011Y-86553743D01*
X148494000Y-86257184D01*
X148494000Y-86007840D01*
X148910853Y-85590987D01*
X148882989Y-85658257D01*
X148824000Y-85954816D01*
X148824000Y-86257184D01*
X148882989Y-86553743D01*
X148998701Y-86833095D01*
X149166688Y-87084505D01*
X149380495Y-87298312D01*
X149631905Y-87466299D01*
X149911257Y-87582011D01*
X150207816Y-87641000D01*
X150510184Y-87641000D01*
X150806743Y-87582011D01*
X151086095Y-87466299D01*
X151337505Y-87298312D01*
X151551312Y-87084505D01*
X151719299Y-86833095D01*
X151835011Y-86553743D01*
X151894000Y-86257184D01*
X151894000Y-85954816D01*
X151835011Y-85658257D01*
X151719299Y-85378905D01*
X151551312Y-85127495D01*
X151337505Y-84913688D01*
X151086095Y-84745701D01*
X150821228Y-84635989D01*
X153296772Y-84635989D01*
X153031905Y-84745701D01*
X152780495Y-84913688D01*
X152566688Y-85127495D01*
X152398701Y-85378905D01*
X152282989Y-85658257D01*
X152224000Y-85954816D01*
X152224000Y-86257184D01*
X152282989Y-86553743D01*
X152398701Y-86833095D01*
X152566688Y-87084505D01*
X152780495Y-87298312D01*
X153031905Y-87466299D01*
X153311257Y-87582011D01*
X153607816Y-87641000D01*
X153910184Y-87641000D01*
X154206743Y-87582011D01*
X154486095Y-87466299D01*
X154737505Y-87298312D01*
X154951312Y-87084505D01*
X155119299Y-86833095D01*
X155235011Y-86553743D01*
X155294000Y-86257184D01*
X155294000Y-86007841D01*
X155703841Y-85598000D01*
X155707948Y-85598000D01*
X155682989Y-85658257D01*
X155624000Y-85954816D01*
X155624000Y-86257184D01*
X155682989Y-86553743D01*
X155798701Y-86833095D01*
X155966688Y-87084505D01*
X156180495Y-87298312D01*
X156431905Y-87466299D01*
X156711257Y-87582011D01*
X157007816Y-87641000D01*
X157310184Y-87641000D01*
X157606743Y-87582011D01*
X157886095Y-87466299D01*
X158137505Y-87298312D01*
X158351312Y-87084505D01*
X158519299Y-86833095D01*
X158635011Y-86553743D01*
X158694000Y-86257184D01*
X158694000Y-85954816D01*
X158635011Y-85658257D01*
X158610052Y-85598000D01*
X160107160Y-85598000D01*
X160459928Y-85950769D01*
X160459928Y-86177001D01*
X160476992Y-86350255D01*
X160527528Y-86516851D01*
X160609595Y-86670387D01*
X160720038Y-86804962D01*
X160854613Y-86915405D01*
X161008149Y-86997472D01*
X161174745Y-87048008D01*
X161347999Y-87065072D01*
X162248001Y-87065072D01*
X162421255Y-87048008D01*
X162587851Y-86997472D01*
X162741387Y-86915405D01*
X162875962Y-86804962D01*
X162986405Y-86670387D01*
X163068472Y-86516851D01*
X163119008Y-86350255D01*
X163136072Y-86177001D01*
X163136072Y-85526999D01*
X163119008Y-85353745D01*
X163068472Y-85187149D01*
X162986405Y-85033613D01*
X162875962Y-84899038D01*
X162788184Y-84827000D01*
X162875962Y-84754962D01*
X162986405Y-84620387D01*
X163068472Y-84466851D01*
X163119008Y-84300255D01*
X163136072Y-84127001D01*
X163136072Y-83476999D01*
X163119008Y-83303745D01*
X163090571Y-83210000D01*
X168880608Y-83210000D01*
X169692249Y-83282437D01*
X170449774Y-83489672D01*
X171158625Y-83827777D01*
X171796404Y-84286067D01*
X172342946Y-84850055D01*
X172780977Y-85501913D01*
X173096651Y-86221038D01*
X173281206Y-86989768D01*
X173330001Y-87654221D01*
X173330000Y-107920608D01*
X173257563Y-108732249D01*
X173050328Y-109489774D01*
X172712221Y-110198627D01*
X172253928Y-110836410D01*
X171689945Y-111382946D01*
X171038085Y-111820978D01*
X170318963Y-112136651D01*
X169550232Y-112321206D01*
X168885792Y-112370000D01*
X155575000Y-112370000D01*
X155575000Y-109441561D01*
X162264044Y-109441561D01*
X162420040Y-109757108D01*
X162794800Y-109947901D01*
X163199582Y-110061917D01*
X163618829Y-110094772D01*
X164036431Y-110045205D01*
X164436339Y-109915121D01*
X164731960Y-109757108D01*
X164887956Y-109441561D01*
X163576000Y-108129605D01*
X162264044Y-109441561D01*
X155575000Y-109441561D01*
X155575000Y-107992829D01*
X161431228Y-107992829D01*
X161480795Y-108410431D01*
X161610879Y-108810339D01*
X161768892Y-109105960D01*
X162084439Y-109261956D01*
X163396395Y-107950000D01*
X163755605Y-107950000D01*
X165067561Y-109261956D01*
X165248058Y-109172724D01*
X165248058Y-109449870D01*
X165260318Y-109574352D01*
X165296628Y-109694050D01*
X165355593Y-109804364D01*
X165434945Y-109901055D01*
X165531636Y-109980407D01*
X165641950Y-110039372D01*
X165761648Y-110075682D01*
X165886130Y-110087942D01*
X168885870Y-110087942D01*
X169010352Y-110075682D01*
X169130050Y-110039372D01*
X169240364Y-109980407D01*
X169337055Y-109901055D01*
X169416407Y-109804364D01*
X169475372Y-109694050D01*
X169511682Y-109574352D01*
X169523942Y-109449870D01*
X169523942Y-106450130D01*
X169511682Y-106325648D01*
X169475372Y-106205950D01*
X169416407Y-106095636D01*
X169337055Y-105998945D01*
X169240364Y-105919593D01*
X169130050Y-105860628D01*
X169010352Y-105824318D01*
X168885870Y-105812058D01*
X168402000Y-105812058D01*
X168402000Y-105327396D01*
X168500637Y-105228759D01*
X168657680Y-104993727D01*
X168765853Y-104732574D01*
X168821000Y-104455335D01*
X168821000Y-104172665D01*
X168765853Y-103895426D01*
X168657680Y-103634273D01*
X168500637Y-103399241D01*
X168300759Y-103199363D01*
X168065727Y-103042320D01*
X167804574Y-102934147D01*
X167527335Y-102879000D01*
X167244665Y-102879000D01*
X166967426Y-102934147D01*
X166706273Y-103042320D01*
X166471241Y-103199363D01*
X166271363Y-103399241D01*
X166114320Y-103634273D01*
X166006147Y-103895426D01*
X165951000Y-104172665D01*
X165951000Y-104455335D01*
X166006147Y-104732574D01*
X166114320Y-104993727D01*
X166271363Y-105228759D01*
X166370000Y-105327396D01*
X166370000Y-105812058D01*
X165886130Y-105812058D01*
X165761648Y-105824318D01*
X165641950Y-105860628D01*
X165531636Y-105919593D01*
X165434945Y-105998945D01*
X165355593Y-106095636D01*
X165296628Y-106205950D01*
X165260318Y-106325648D01*
X165248058Y-106450130D01*
X165248058Y-106727276D01*
X165067561Y-106638044D01*
X163755605Y-107950000D01*
X163396395Y-107950000D01*
X162084439Y-106638044D01*
X161768892Y-106794040D01*
X161578099Y-107168800D01*
X161464083Y-107573582D01*
X161431228Y-107992829D01*
X155575000Y-107992829D01*
X155575000Y-106458439D01*
X162264044Y-106458439D01*
X163576000Y-107770395D01*
X164887956Y-106458439D01*
X164731960Y-106142892D01*
X164357200Y-105952099D01*
X163952418Y-105838083D01*
X163533171Y-105805228D01*
X163115569Y-105854795D01*
X162715661Y-105984879D01*
X162420040Y-106142892D01*
X162264044Y-106458439D01*
X155575000Y-106458439D01*
X155575000Y-105323202D01*
X162508903Y-105323202D01*
X162580486Y-105567171D01*
X162835996Y-105688071D01*
X163110184Y-105756800D01*
X163392512Y-105770717D01*
X163672130Y-105729287D01*
X163938292Y-105634103D01*
X164063514Y-105567171D01*
X164135097Y-105323202D01*
X163322000Y-104510105D01*
X162508903Y-105323202D01*
X155575000Y-105323202D01*
X155575000Y-104401012D01*
X161881783Y-104401012D01*
X161923213Y-104680630D01*
X162018397Y-104946792D01*
X162085329Y-105072014D01*
X162329298Y-105143597D01*
X163142395Y-104330500D01*
X163501605Y-104330500D01*
X164314702Y-105143597D01*
X164558671Y-105072014D01*
X164679571Y-104816504D01*
X164748300Y-104542316D01*
X164762217Y-104259988D01*
X164720787Y-103980370D01*
X164625603Y-103714208D01*
X164558671Y-103588986D01*
X164314702Y-103517403D01*
X163501605Y-104330500D01*
X163142395Y-104330500D01*
X162329298Y-103517403D01*
X162085329Y-103588986D01*
X161964429Y-103844496D01*
X161895700Y-104118684D01*
X161881783Y-104401012D01*
X155575000Y-104401012D01*
X155575000Y-103337798D01*
X162508903Y-103337798D01*
X163322000Y-104150895D01*
X164135097Y-103337798D01*
X164063514Y-103093829D01*
X163808004Y-102972929D01*
X163533816Y-102904200D01*
X163251488Y-102890283D01*
X162971870Y-102931713D01*
X162705708Y-103026897D01*
X162580486Y-103093829D01*
X162508903Y-103337798D01*
X155575000Y-103337798D01*
X155575000Y-101792000D01*
X156375928Y-101792000D01*
X156388188Y-101916482D01*
X156424498Y-102036180D01*
X156483463Y-102146494D01*
X156562815Y-102243185D01*
X156659506Y-102322537D01*
X156769820Y-102381502D01*
X156889518Y-102417812D01*
X157014000Y-102430072D01*
X157303250Y-102427000D01*
X157462000Y-102268250D01*
X157462000Y-101219000D01*
X156537750Y-101219000D01*
X156379000Y-101377750D01*
X156375928Y-101792000D01*
X155575000Y-101792000D01*
X155575000Y-100392000D01*
X156375928Y-100392000D01*
X156379000Y-100806250D01*
X156537750Y-100965000D01*
X157462000Y-100965000D01*
X157462000Y-99915750D01*
X157303250Y-99757000D01*
X157014000Y-99753928D01*
X156889518Y-99766188D01*
X156769820Y-99802498D01*
X156659506Y-99861463D01*
X156562815Y-99940815D01*
X156483463Y-100037506D01*
X156424498Y-100147820D01*
X156388188Y-100267518D01*
X156375928Y-100392000D01*
X155575000Y-100392000D01*
X155575000Y-99568000D01*
X155572560Y-99543224D01*
X155565333Y-99519399D01*
X155553597Y-99497443D01*
X155537803Y-99478197D01*
X155518557Y-99462403D01*
X155496601Y-99450667D01*
X155472776Y-99443440D01*
X155448000Y-99441000D01*
X151301510Y-99441000D01*
X151301510Y-99396906D01*
X151307347Y-99337645D01*
X151295583Y-99218205D01*
X151284451Y-99105185D01*
X151431851Y-99060472D01*
X151585387Y-98978405D01*
X151719962Y-98867962D01*
X151770813Y-98806000D01*
X152096098Y-98806000D01*
X152146000Y-98810915D01*
X152195902Y-98806000D01*
X152345171Y-98791298D01*
X152536687Y-98733202D01*
X152713190Y-98638860D01*
X152867896Y-98511896D01*
X152899712Y-98473128D01*
X155419769Y-95953072D01*
X155646001Y-95953072D01*
X155819255Y-95936008D01*
X155985851Y-95885472D01*
X156139387Y-95803405D01*
X156273962Y-95692962D01*
X156324813Y-95631000D01*
X156585187Y-95631000D01*
X156636038Y-95692962D01*
X156770613Y-95803405D01*
X156924149Y-95885472D01*
X156978654Y-95902006D01*
X156905873Y-95974787D01*
X156867104Y-96006604D01*
X156740140Y-96161310D01*
X156645798Y-96337814D01*
X156590675Y-96519528D01*
X156587702Y-96529330D01*
X156568085Y-96728500D01*
X156573000Y-96778403D01*
X156573000Y-96788850D01*
X156525595Y-96846613D01*
X156443528Y-97000149D01*
X156392992Y-97166745D01*
X156375928Y-97339999D01*
X156375928Y-98240001D01*
X156392992Y-98413255D01*
X156443528Y-98579851D01*
X156525595Y-98733387D01*
X156636038Y-98867962D01*
X156770613Y-98978405D01*
X156924149Y-99060472D01*
X157090745Y-99111008D01*
X157263999Y-99128072D01*
X157914001Y-99128072D01*
X158087255Y-99111008D01*
X158253851Y-99060472D01*
X158407387Y-98978405D01*
X158541962Y-98867962D01*
X158614000Y-98780184D01*
X158623000Y-98791150D01*
X158623001Y-99950338D01*
X158615185Y-99940815D01*
X158518494Y-99861463D01*
X158408180Y-99802498D01*
X158288482Y-99766188D01*
X158164000Y-99753928D01*
X157874750Y-99757000D01*
X157716000Y-99915750D01*
X157716000Y-100965000D01*
X157736000Y-100965000D01*
X157736000Y-101219000D01*
X157716000Y-101219000D01*
X157716000Y-102268250D01*
X157874750Y-102427000D01*
X158164000Y-102430072D01*
X158288482Y-102417812D01*
X158408180Y-102381502D01*
X158518494Y-102322537D01*
X158615185Y-102243185D01*
X158680658Y-102163406D01*
X158686038Y-102169962D01*
X158820613Y-102280405D01*
X158974149Y-102362472D01*
X159140745Y-102413008D01*
X159313999Y-102430072D01*
X159964001Y-102430072D01*
X160137255Y-102413008D01*
X160303851Y-102362472D01*
X160457387Y-102280405D01*
X160591962Y-102169962D01*
X160642813Y-102108000D01*
X165558098Y-102108000D01*
X165608000Y-102112915D01*
X165657902Y-102108000D01*
X165807171Y-102093298D01*
X165998687Y-102035202D01*
X166175190Y-101940860D01*
X166329896Y-101813896D01*
X166361712Y-101775128D01*
X167387841Y-100749000D01*
X167527335Y-100749000D01*
X167804574Y-100693853D01*
X168065727Y-100585680D01*
X168300759Y-100428637D01*
X168500637Y-100228759D01*
X168657680Y-99993727D01*
X168765853Y-99732574D01*
X168821000Y-99455335D01*
X168821000Y-99172665D01*
X168765853Y-98895426D01*
X168657680Y-98634273D01*
X168500637Y-98399241D01*
X168300759Y-98199363D01*
X168065727Y-98042320D01*
X167804574Y-97934147D01*
X167527335Y-97879000D01*
X167244665Y-97879000D01*
X166967426Y-97934147D01*
X166706273Y-98042320D01*
X166471241Y-98199363D01*
X166271363Y-98399241D01*
X166114320Y-98634273D01*
X166006147Y-98895426D01*
X165951000Y-99172665D01*
X165951000Y-99312159D01*
X165187160Y-100076000D01*
X164549732Y-100076000D01*
X164593680Y-100010227D01*
X164701853Y-99749074D01*
X164757000Y-99471835D01*
X164757000Y-99189165D01*
X164701853Y-98911926D01*
X164593680Y-98650773D01*
X164436637Y-98415741D01*
X164338000Y-98317104D01*
X164338000Y-97458893D01*
X164342914Y-97408999D01*
X164338000Y-97359105D01*
X164338000Y-97359098D01*
X164323298Y-97209829D01*
X164265202Y-97018313D01*
X164170860Y-96841810D01*
X164043896Y-96687104D01*
X164005133Y-96655292D01*
X162980840Y-95631000D01*
X164415098Y-95631000D01*
X164465000Y-95635915D01*
X164514902Y-95631000D01*
X164664171Y-95616298D01*
X164855687Y-95558202D01*
X165032190Y-95463860D01*
X165186896Y-95336896D01*
X165218712Y-95298128D01*
X169978769Y-90538072D01*
X171180000Y-90538072D01*
X171304482Y-90525812D01*
X171424180Y-90489502D01*
X171534494Y-90430537D01*
X171631185Y-90351185D01*
X171710537Y-90254494D01*
X171769502Y-90144180D01*
X171805812Y-90024482D01*
X171818072Y-89900000D01*
X171818072Y-87900000D01*
X171805812Y-87775518D01*
X171769502Y-87655820D01*
X171710537Y-87545506D01*
X171631185Y-87448815D01*
X171534494Y-87369463D01*
X171424180Y-87310498D01*
X171304482Y-87274188D01*
X171180000Y-87261928D01*
X169180000Y-87261928D01*
X169055518Y-87274188D01*
X168935820Y-87310498D01*
X168825506Y-87369463D01*
X168728815Y-87448815D01*
X168649463Y-87545506D01*
X168590498Y-87655820D01*
X168554188Y-87775518D01*
X168541928Y-87900000D01*
X168541928Y-89101231D01*
X164044160Y-93599000D01*
X160642813Y-93599000D01*
X160591962Y-93537038D01*
X160457387Y-93426595D01*
X160303851Y-93344528D01*
X160137255Y-93293992D01*
X159964001Y-93276928D01*
X159313999Y-93276928D01*
X159140745Y-93293992D01*
X158974149Y-93344528D01*
X158820613Y-93426595D01*
X158686038Y-93537038D01*
X158614000Y-93624816D01*
X158541962Y-93537038D01*
X158407387Y-93426595D01*
X158253851Y-93344528D01*
X158087255Y-93293992D01*
X157914001Y-93276928D01*
X157263999Y-93276928D01*
X157090745Y-93293992D01*
X156924149Y-93344528D01*
X156770613Y-93426595D01*
X156636038Y-93537038D01*
X156585187Y-93599000D01*
X156475000Y-93599000D01*
X156475000Y-92340817D01*
X156651312Y-92164505D01*
X156819299Y-91913095D01*
X156935011Y-91633743D01*
X156994000Y-91337184D01*
X156994000Y-91034816D01*
X157324000Y-91034816D01*
X157324000Y-91337184D01*
X157382989Y-91633743D01*
X157498701Y-91913095D01*
X157666688Y-92164505D01*
X157880495Y-92378312D01*
X158131905Y-92546299D01*
X158411257Y-92662011D01*
X158707816Y-92721000D01*
X159010184Y-92721000D01*
X159306743Y-92662011D01*
X159586095Y-92546299D01*
X159837505Y-92378312D01*
X160051312Y-92164505D01*
X160219299Y-91913095D01*
X160335011Y-91633743D01*
X160394000Y-91337184D01*
X160394000Y-91034816D01*
X160335011Y-90738257D01*
X160219299Y-90458905D01*
X160051312Y-90207495D01*
X159879230Y-90035413D01*
X164224192Y-90035413D01*
X164319956Y-90299814D01*
X164609571Y-90440704D01*
X164921108Y-90522384D01*
X165242595Y-90541718D01*
X165561675Y-90497961D01*
X165866088Y-90392795D01*
X166040044Y-90299814D01*
X166135808Y-90035413D01*
X165180000Y-89079605D01*
X164224192Y-90035413D01*
X159879230Y-90035413D01*
X159837505Y-89993688D01*
X159586095Y-89825701D01*
X159306743Y-89709989D01*
X159010184Y-89651000D01*
X158707816Y-89651000D01*
X158411257Y-89709989D01*
X158131905Y-89825701D01*
X157880495Y-89993688D01*
X157666688Y-90207495D01*
X157498701Y-90458905D01*
X157382989Y-90738257D01*
X157324000Y-91034816D01*
X156994000Y-91034816D01*
X156935011Y-90738257D01*
X156819299Y-90458905D01*
X156651312Y-90207495D01*
X156437505Y-89993688D01*
X156186095Y-89825701D01*
X155906743Y-89709989D01*
X155610184Y-89651000D01*
X155307816Y-89651000D01*
X155011257Y-89709989D01*
X154731905Y-89825701D01*
X154480495Y-89993688D01*
X154266688Y-90207495D01*
X154098701Y-90458905D01*
X153982989Y-90738257D01*
X153924000Y-91034816D01*
X153924000Y-91337184D01*
X153982989Y-91633743D01*
X154098701Y-91913095D01*
X154266688Y-92164505D01*
X154443000Y-92340817D01*
X154443001Y-93475518D01*
X154368038Y-93537038D01*
X154296000Y-93624816D01*
X154223962Y-93537038D01*
X154089387Y-93426595D01*
X153935851Y-93344528D01*
X153769255Y-93293992D01*
X153596001Y-93276928D01*
X152945999Y-93276928D01*
X152772745Y-93293992D01*
X152606149Y-93344528D01*
X152452613Y-93426595D01*
X152318038Y-93537038D01*
X152267187Y-93599000D01*
X151752813Y-93599000D01*
X151701962Y-93537038D01*
X151567387Y-93426595D01*
X151413851Y-93344528D01*
X151247255Y-93293992D01*
X151074001Y-93276928D01*
X150423999Y-93276928D01*
X150250745Y-93293992D01*
X150084149Y-93344528D01*
X149930613Y-93426595D01*
X149796038Y-93537038D01*
X149724000Y-93624816D01*
X149651962Y-93537038D01*
X149517387Y-93426595D01*
X149363851Y-93344528D01*
X149197255Y-93293992D01*
X149059692Y-93280443D01*
X148498370Y-92719121D01*
X148507816Y-92721000D01*
X148810184Y-92721000D01*
X149106743Y-92662011D01*
X149386095Y-92546299D01*
X149637505Y-92378312D01*
X149851312Y-92164505D01*
X150019299Y-91913095D01*
X150135011Y-91633743D01*
X150151521Y-91550740D01*
X150567964Y-91550740D01*
X150616606Y-91711107D01*
X150746764Y-91982414D01*
X150927351Y-92223116D01*
X151151427Y-92423962D01*
X151410380Y-92577234D01*
X151694259Y-92677041D01*
X151932000Y-92556992D01*
X151932000Y-91313000D01*
X152186000Y-91313000D01*
X152186000Y-92556992D01*
X152423741Y-92677041D01*
X152707620Y-92577234D01*
X152966573Y-92423962D01*
X153190649Y-92223116D01*
X153371236Y-91982414D01*
X153501394Y-91711107D01*
X153550036Y-91550740D01*
X153429378Y-91313000D01*
X152186000Y-91313000D01*
X151932000Y-91313000D01*
X150688622Y-91313000D01*
X150567964Y-91550740D01*
X150151521Y-91550740D01*
X150194000Y-91337184D01*
X150194000Y-91034816D01*
X150151522Y-90821260D01*
X150567964Y-90821260D01*
X150688622Y-91059000D01*
X151932000Y-91059000D01*
X151932000Y-89815008D01*
X152186000Y-89815008D01*
X152186000Y-91059000D01*
X153429378Y-91059000D01*
X153550036Y-90821260D01*
X153501394Y-90660893D01*
X153371236Y-90389586D01*
X153190649Y-90148884D01*
X152966573Y-89948038D01*
X152707620Y-89794766D01*
X152423741Y-89694959D01*
X152186000Y-89815008D01*
X151932000Y-89815008D01*
X151694259Y-89694959D01*
X151410380Y-89794766D01*
X151151427Y-89948038D01*
X150927351Y-90148884D01*
X150746764Y-90389586D01*
X150616606Y-90660893D01*
X150567964Y-90821260D01*
X150151522Y-90821260D01*
X150135011Y-90738257D01*
X150019299Y-90458905D01*
X149851312Y-90207495D01*
X149637505Y-89993688D01*
X149386095Y-89825701D01*
X149106743Y-89709989D01*
X148835230Y-89655982D01*
X148570220Y-89390972D01*
X148570215Y-89390968D01*
X148141843Y-88962595D01*
X163538282Y-88962595D01*
X163582039Y-89281675D01*
X163687205Y-89586088D01*
X163780186Y-89760044D01*
X164044587Y-89855808D01*
X165000395Y-88900000D01*
X165359605Y-88900000D01*
X166315413Y-89855808D01*
X166579814Y-89760044D01*
X166720704Y-89470429D01*
X166802384Y-89158892D01*
X166821718Y-88837405D01*
X166777961Y-88518325D01*
X166672795Y-88213912D01*
X166579814Y-88039956D01*
X166315413Y-87944192D01*
X165359605Y-88900000D01*
X165000395Y-88900000D01*
X164044587Y-87944192D01*
X163780186Y-88039956D01*
X163639296Y-88329571D01*
X163557616Y-88641108D01*
X163538282Y-88962595D01*
X148141843Y-88962595D01*
X147882534Y-88703286D01*
X147844751Y-88657247D01*
X147661037Y-88506478D01*
X147451440Y-88394446D01*
X147224014Y-88325457D01*
X147046762Y-88307999D01*
X147046760Y-88307999D01*
X146987499Y-88302162D01*
X146928238Y-88307999D01*
X143589761Y-88307999D01*
X143530500Y-88302162D01*
X143471239Y-88307999D01*
X143471238Y-88307999D01*
X143293986Y-88325457D01*
X143066560Y-88394446D01*
X142856963Y-88506478D01*
X142673249Y-88657247D01*
X142635471Y-88703280D01*
X141690824Y-89647928D01*
X140959000Y-89647928D01*
X140834518Y-89660188D01*
X140714820Y-89696498D01*
X140604506Y-89755463D01*
X140507815Y-89834815D01*
X140428463Y-89931506D01*
X140369498Y-90041820D01*
X140333188Y-90161518D01*
X140320928Y-90286000D01*
X140320928Y-91017824D01*
X140216252Y-91122500D01*
X137596248Y-91122500D01*
X139377220Y-89341529D01*
X139423252Y-89303752D01*
X139446485Y-89275443D01*
X139518962Y-89215962D01*
X139629405Y-89081387D01*
X139711472Y-88927851D01*
X139762008Y-88761255D01*
X139779072Y-88588001D01*
X139779072Y-87764587D01*
X164224192Y-87764587D01*
X165180000Y-88720395D01*
X166135808Y-87764587D01*
X166040044Y-87500186D01*
X165750429Y-87359296D01*
X165438892Y-87277616D01*
X165117405Y-87258282D01*
X164798325Y-87302039D01*
X164493912Y-87407205D01*
X164319956Y-87500186D01*
X164224192Y-87764587D01*
X139779072Y-87764587D01*
X139779072Y-87687999D01*
X139762008Y-87514745D01*
X139711472Y-87348149D01*
X139629405Y-87194613D01*
X139518962Y-87060038D01*
X139384387Y-86949595D01*
X139230851Y-86867528D01*
X139064255Y-86816992D01*
X138891001Y-86799928D01*
X138240999Y-86799928D01*
X138067745Y-86816992D01*
X137901149Y-86867528D01*
X137747613Y-86949595D01*
X137613038Y-87060038D01*
X137607658Y-87066594D01*
X137542185Y-86986815D01*
X137445494Y-86907463D01*
X137335180Y-86848498D01*
X137215482Y-86812188D01*
X137091000Y-86799928D01*
X136801750Y-86803000D01*
X136643000Y-86961750D01*
X136643000Y-88011000D01*
X136663000Y-88011000D01*
X136663000Y-88265000D01*
X136643000Y-88265000D01*
X136643000Y-88285000D01*
X136389000Y-88285000D01*
X136389000Y-88265000D01*
X135464750Y-88265000D01*
X135306000Y-88423750D01*
X135302928Y-88838000D01*
X135315188Y-88962482D01*
X135351498Y-89082180D01*
X135410463Y-89192494D01*
X135489815Y-89289185D01*
X135586506Y-89368537D01*
X135696820Y-89427502D01*
X135816518Y-89463812D01*
X135840116Y-89466136D01*
X135078782Y-90227470D01*
X135032749Y-90265248D01*
X134994971Y-90311281D01*
X134881979Y-90448962D01*
X134842664Y-90522516D01*
X134769947Y-90658559D01*
X134700958Y-90885985D01*
X134685867Y-91039200D01*
X134638815Y-91077815D01*
X134559463Y-91174506D01*
X134500498Y-91284820D01*
X134464188Y-91404518D01*
X134451928Y-91529000D01*
X134451928Y-91536215D01*
X134382702Y-91515903D01*
X133569605Y-92329000D01*
X134382702Y-93142097D01*
X134451928Y-93121785D01*
X134451928Y-93129000D01*
X134464188Y-93253482D01*
X134500498Y-93373180D01*
X134559463Y-93483494D01*
X134638815Y-93580185D01*
X134683501Y-93616858D01*
X134683500Y-99381739D01*
X134677663Y-99441000D01*
X134683500Y-99500261D01*
X134683500Y-99500262D01*
X134700958Y-99677514D01*
X134769947Y-99904940D01*
X134769948Y-99904941D01*
X134881979Y-100114538D01*
X134939033Y-100184058D01*
X135032748Y-100298252D01*
X135078786Y-100336034D01*
X135453752Y-100711000D01*
X133935782Y-102228970D01*
X133889749Y-102266748D01*
X133851971Y-102312781D01*
X133738979Y-102450462D01*
X133626948Y-102660059D01*
X133557959Y-102887485D01*
X133534663Y-103124000D01*
X133540501Y-103183271D01*
X133540500Y-106196868D01*
X132996940Y-106196868D01*
X132872458Y-106209128D01*
X132752760Y-106245438D01*
X132642446Y-106304403D01*
X132545755Y-106383755D01*
X132466403Y-106480446D01*
X132407438Y-106590760D01*
X132371128Y-106710458D01*
X132358868Y-106834940D01*
X132358868Y-107367198D01*
X132312815Y-107281039D01*
X131971651Y-107094954D01*
X130481605Y-108585000D01*
X131971651Y-110075046D01*
X132312815Y-109888961D01*
X132358868Y-109799878D01*
X132358868Y-110335060D01*
X132371128Y-110459542D01*
X132407438Y-110579240D01*
X132466403Y-110689554D01*
X132545755Y-110786245D01*
X132642446Y-110865597D01*
X132752760Y-110924562D01*
X132872458Y-110960872D01*
X132996940Y-110973132D01*
X136497060Y-110973132D01*
X136621542Y-110960872D01*
X136741240Y-110924562D01*
X136851554Y-110865597D01*
X136948245Y-110786245D01*
X137027597Y-110689554D01*
X137086562Y-110579240D01*
X137122872Y-110459542D01*
X137135132Y-110335060D01*
X137135132Y-106834940D01*
X137122872Y-106710458D01*
X137086562Y-106590760D01*
X137027597Y-106480446D01*
X136948245Y-106383755D01*
X136851554Y-106304403D01*
X136741240Y-106245438D01*
X136621542Y-106209128D01*
X136497060Y-106196868D01*
X135953500Y-106196868D01*
X135953500Y-103623748D01*
X137228177Y-102349072D01*
X138160000Y-102349072D01*
X138284482Y-102336812D01*
X138404180Y-102300502D01*
X138514494Y-102241537D01*
X138611185Y-102162185D01*
X138690537Y-102065494D01*
X138749502Y-101955180D01*
X138785812Y-101835482D01*
X138798072Y-101711000D01*
X138798072Y-99711000D01*
X138785812Y-99586518D01*
X138749502Y-99466820D01*
X138690537Y-99356506D01*
X138611185Y-99259815D01*
X138514494Y-99180463D01*
X138404180Y-99121498D01*
X138284482Y-99085188D01*
X138160000Y-99072928D01*
X137228176Y-99072928D01*
X137096500Y-98941252D01*
X137096500Y-93616857D01*
X137141185Y-93580185D01*
X137177857Y-93535500D01*
X140330467Y-93535500D01*
X140278000Y-93799268D01*
X140278000Y-94160732D01*
X140348518Y-94515250D01*
X140486844Y-94849199D01*
X140687662Y-95149744D01*
X140943256Y-95405338D01*
X141243801Y-95606156D01*
X141577750Y-95744482D01*
X141932268Y-95815000D01*
X142293732Y-95815000D01*
X142648250Y-95744482D01*
X142982199Y-95606156D01*
X143282744Y-95405338D01*
X143538338Y-95149744D01*
X143739156Y-94849199D01*
X143877482Y-94515250D01*
X143937443Y-94213805D01*
X145259000Y-92892248D01*
X147491847Y-95125096D01*
X147492500Y-95131728D01*
X147492500Y-95474262D01*
X147492501Y-95474272D01*
X147492500Y-97882375D01*
X147486663Y-97941636D01*
X147492500Y-98000897D01*
X147492500Y-98000898D01*
X147503928Y-98116927D01*
X147503928Y-98240001D01*
X147520992Y-98413255D01*
X147571528Y-98579851D01*
X147653595Y-98733387D01*
X147764038Y-98867962D01*
X147898613Y-98978405D01*
X148052149Y-99060472D01*
X148137469Y-99086353D01*
X148888511Y-99837396D01*
X148888511Y-102155115D01*
X148742759Y-102009363D01*
X148507727Y-101852320D01*
X148246574Y-101744147D01*
X147969335Y-101689000D01*
X147686665Y-101689000D01*
X147409426Y-101744147D01*
X147148273Y-101852320D01*
X147050724Y-101917500D01*
X145474260Y-101917500D01*
X145414999Y-101911663D01*
X145355738Y-101917500D01*
X145355737Y-101917500D01*
X145178485Y-101934958D01*
X144951059Y-102003947D01*
X144741462Y-102115979D01*
X144557748Y-102266748D01*
X144519970Y-102312781D01*
X141301782Y-105530970D01*
X141255749Y-105568748D01*
X141217971Y-105614781D01*
X141104979Y-105752462D01*
X140992948Y-105962059D01*
X140923959Y-106189485D01*
X140900663Y-106426000D01*
X140906501Y-106485270D01*
X140906500Y-107831418D01*
X140687662Y-108050256D01*
X140486844Y-108350801D01*
X140348518Y-108684750D01*
X140278000Y-109039268D01*
X140278000Y-109400732D01*
X140348518Y-109755250D01*
X140486844Y-110089199D01*
X140687662Y-110389744D01*
X140943256Y-110645338D01*
X141243801Y-110846156D01*
X141577750Y-110984482D01*
X141932268Y-111055000D01*
X142293732Y-111055000D01*
X142648250Y-110984482D01*
X142982199Y-110846156D01*
X143282744Y-110645338D01*
X143538338Y-110389744D01*
X143739156Y-110089199D01*
X143877482Y-109755250D01*
X143948000Y-109400732D01*
X143948000Y-109039268D01*
X143877482Y-108684750D01*
X143739156Y-108350801D01*
X143538338Y-108050256D01*
X143319500Y-107831418D01*
X143319500Y-106925748D01*
X145914749Y-104330500D01*
X147050724Y-104330500D01*
X147148273Y-104395680D01*
X147409426Y-104503853D01*
X147686665Y-104559000D01*
X147969335Y-104559000D01*
X148246574Y-104503853D01*
X148507727Y-104395680D01*
X148742759Y-104238637D01*
X148888510Y-104092886D01*
X148888510Y-105370378D01*
X148189020Y-106069868D01*
X145823940Y-106069868D01*
X145699458Y-106082128D01*
X145579760Y-106118438D01*
X145469446Y-106177403D01*
X145372755Y-106256755D01*
X145293403Y-106353446D01*
X145234438Y-106463760D01*
X145198128Y-106583458D01*
X145185868Y-106707940D01*
X145185868Y-110208060D01*
X145198128Y-110332542D01*
X145234438Y-110452240D01*
X145293403Y-110562554D01*
X145372755Y-110659245D01*
X145469446Y-110738597D01*
X145579760Y-110797562D01*
X145699458Y-110833872D01*
X145823940Y-110846132D01*
X149324060Y-110846132D01*
X149448542Y-110833872D01*
X149568240Y-110797562D01*
X149678554Y-110738597D01*
X149775245Y-110659245D01*
X149854597Y-110562554D01*
X149913562Y-110452240D01*
X149949872Y-110332542D01*
X149962132Y-110208060D01*
X149962132Y-110127651D01*
X151163954Y-110127651D01*
X151350039Y-110468815D01*
X151767384Y-110684568D01*
X152218802Y-110814755D01*
X152686944Y-110854374D01*
X153153821Y-110801901D01*
X153601489Y-110659354D01*
X153957961Y-110468815D01*
X154144046Y-110127651D01*
X152654000Y-108637605D01*
X151163954Y-110127651D01*
X149962132Y-110127651D01*
X149962132Y-108490944D01*
X150257626Y-108490944D01*
X150310099Y-108957821D01*
X150452646Y-109405489D01*
X150643185Y-109761961D01*
X150984349Y-109948046D01*
X152474395Y-108458000D01*
X150984349Y-106967954D01*
X150643185Y-107154039D01*
X150427432Y-107571384D01*
X150297245Y-108022802D01*
X150257626Y-108490944D01*
X149962132Y-108490944D01*
X149962132Y-107709252D01*
X150883035Y-106788349D01*
X151163954Y-106788349D01*
X152654000Y-108278395D01*
X154144046Y-106788349D01*
X153957961Y-106447185D01*
X153540616Y-106231432D01*
X153089198Y-106101245D01*
X152621056Y-106061626D01*
X152154179Y-106114099D01*
X151706511Y-106256646D01*
X151350039Y-106447185D01*
X151163954Y-106788349D01*
X150883035Y-106788349D01*
X150906225Y-106765159D01*
X150952262Y-106727378D01*
X151103031Y-106543664D01*
X151215063Y-106334067D01*
X151284052Y-106106641D01*
X151301510Y-105929389D01*
X151301510Y-105929388D01*
X151307347Y-105870126D01*
X151301510Y-105810863D01*
X151301510Y-104116702D01*
X152014903Y-104116702D01*
X152086486Y-104360671D01*
X152341996Y-104481571D01*
X152616184Y-104550300D01*
X152898512Y-104564217D01*
X153178130Y-104522787D01*
X153444292Y-104427603D01*
X153569514Y-104360671D01*
X153641097Y-104116702D01*
X152828000Y-103303605D01*
X152014903Y-104116702D01*
X151301510Y-104116702D01*
X151301510Y-103194512D01*
X151387783Y-103194512D01*
X151429213Y-103474130D01*
X151524397Y-103740292D01*
X151591329Y-103865514D01*
X151835298Y-103937097D01*
X152648395Y-103124000D01*
X153007605Y-103124000D01*
X153820702Y-103937097D01*
X154064671Y-103865514D01*
X154185571Y-103610004D01*
X154254300Y-103335816D01*
X154268217Y-103053488D01*
X154226787Y-102773870D01*
X154131603Y-102507708D01*
X154064671Y-102382486D01*
X153820702Y-102310903D01*
X153007605Y-103124000D01*
X152648395Y-103124000D01*
X151835298Y-102310903D01*
X151591329Y-102382486D01*
X151470429Y-102637996D01*
X151401700Y-102912184D01*
X151387783Y-103194512D01*
X151301510Y-103194512D01*
X151301510Y-102131298D01*
X152014903Y-102131298D01*
X152828000Y-102944395D01*
X153641097Y-102131298D01*
X153569514Y-101887329D01*
X153314004Y-101766429D01*
X153039816Y-101697700D01*
X152757488Y-101683783D01*
X152477870Y-101725213D01*
X152211708Y-101820397D01*
X152086486Y-101887329D01*
X152014903Y-102131298D01*
X151301510Y-102131298D01*
X151301510Y-100076000D01*
X154813000Y-100076000D01*
X154813000Y-107431273D01*
X154664815Y-107154039D01*
X154323651Y-106967954D01*
X152833605Y-108458000D01*
X154323651Y-109948046D01*
X154664815Y-109761961D01*
X154813000Y-109475317D01*
X154813000Y-112370000D01*
X125759392Y-112370000D01*
X124947751Y-112297563D01*
X124190226Y-112090328D01*
X123481373Y-111752221D01*
X122843590Y-111293928D01*
X122297054Y-110729945D01*
X121859022Y-110078085D01*
X121543349Y-109358963D01*
X121358794Y-108590232D01*
X121310000Y-107925792D01*
X121310000Y-87659392D01*
X121382437Y-86847751D01*
X121589672Y-86090226D01*
X121927777Y-85381375D01*
X122386067Y-84743596D01*
X122950055Y-84197054D01*
X123601913Y-83759023D01*
X124321038Y-83443349D01*
X125089768Y-83258794D01*
X125754207Y-83210000D01*
X130296893Y-83210000D01*
X130119750Y-83355376D01*
G37*
X130119750Y-83355376D02*
X130081967Y-83401415D01*
X129657782Y-83825600D01*
X129611749Y-83863378D01*
X129573971Y-83909411D01*
X129460979Y-84047092D01*
X129418267Y-84127001D01*
X129348947Y-84256689D01*
X129279958Y-84484115D01*
X129262740Y-84658933D01*
X129256663Y-84720630D01*
X129262500Y-84779891D01*
X129262500Y-85074724D01*
X129197320Y-85172273D01*
X129089147Y-85433426D01*
X129066258Y-85548494D01*
X123220782Y-91393970D01*
X123174749Y-91431748D01*
X123136971Y-91477781D01*
X123023979Y-91615462D01*
X123002599Y-91655462D01*
X122911947Y-91825059D01*
X122879831Y-91930930D01*
X122762013Y-92048748D01*
X122583082Y-92316537D01*
X122459832Y-92614088D01*
X122397000Y-92929967D01*
X122397000Y-93252033D01*
X122459832Y-93567912D01*
X122583082Y-93865463D01*
X122762013Y-94133252D01*
X122989748Y-94360987D01*
X123257537Y-94539918D01*
X123555088Y-94663168D01*
X123870967Y-94726000D01*
X123960752Y-94726000D01*
X124650501Y-95415749D01*
X124650500Y-106522670D01*
X124336613Y-106732403D01*
X124004403Y-107064613D01*
X123743387Y-107455251D01*
X123563597Y-107889304D01*
X123471940Y-108350092D01*
X123471940Y-108819908D01*
X123563597Y-109280696D01*
X123743387Y-109714749D01*
X124004403Y-110105387D01*
X124336613Y-110437597D01*
X124727251Y-110698613D01*
X125161304Y-110878403D01*
X125622092Y-110970060D01*
X126091908Y-110970060D01*
X126552696Y-110878403D01*
X126986749Y-110698613D01*
X127377387Y-110437597D01*
X127560333Y-110254651D01*
X128811954Y-110254651D01*
X128998039Y-110595815D01*
X129415384Y-110811568D01*
X129866802Y-110941755D01*
X130334944Y-110981374D01*
X130801821Y-110928901D01*
X131249489Y-110786354D01*
X131605961Y-110595815D01*
X131792046Y-110254651D01*
X130302000Y-108764605D01*
X128811954Y-110254651D01*
X127560333Y-110254651D01*
X127709597Y-110105387D01*
X127970613Y-109714749D01*
X128076942Y-109458047D01*
X128100646Y-109532489D01*
X128291185Y-109888961D01*
X128632349Y-110075046D01*
X130122395Y-108585000D01*
X128632349Y-107094954D01*
X128291185Y-107281039D01*
X128075432Y-107698384D01*
X128073745Y-107704234D01*
X127970613Y-107455251D01*
X127709597Y-107064613D01*
X127560333Y-106915349D01*
X128811954Y-106915349D01*
X130302000Y-108405395D01*
X131792046Y-106915349D01*
X131605961Y-106574185D01*
X131188616Y-106358432D01*
X130737198Y-106228245D01*
X130269056Y-106188626D01*
X129802179Y-106241099D01*
X129354511Y-106383646D01*
X128998039Y-106574185D01*
X128811954Y-106915349D01*
X127560333Y-106915349D01*
X127377387Y-106732403D01*
X127063500Y-106522670D01*
X127063500Y-101846413D01*
X131204192Y-101846413D01*
X131299956Y-102110814D01*
X131589571Y-102251704D01*
X131901108Y-102333384D01*
X132222595Y-102352718D01*
X132541675Y-102308961D01*
X132846088Y-102203795D01*
X133020044Y-102110814D01*
X133115808Y-101846413D01*
X132160000Y-100890605D01*
X131204192Y-101846413D01*
X127063500Y-101846413D01*
X127063500Y-100773595D01*
X130518282Y-100773595D01*
X130562039Y-101092675D01*
X130667205Y-101397088D01*
X130760186Y-101571044D01*
X131024587Y-101666808D01*
X131980395Y-100711000D01*
X132339605Y-100711000D01*
X133295413Y-101666808D01*
X133559814Y-101571044D01*
X133700704Y-101281429D01*
X133782384Y-100969892D01*
X133801718Y-100648405D01*
X133757961Y-100329325D01*
X133652795Y-100024912D01*
X133559814Y-99850956D01*
X133295413Y-99755192D01*
X132339605Y-100711000D01*
X131980395Y-100711000D01*
X131024587Y-99755192D01*
X130760186Y-99850956D01*
X130619296Y-100140571D01*
X130537616Y-100452108D01*
X130518282Y-100773595D01*
X127063500Y-100773595D01*
X127063500Y-99575587D01*
X131204192Y-99575587D01*
X132160000Y-100531395D01*
X133115808Y-99575587D01*
X133020044Y-99311186D01*
X132730429Y-99170296D01*
X132418892Y-99088616D01*
X132097405Y-99069282D01*
X131778325Y-99113039D01*
X131473912Y-99218205D01*
X131299956Y-99311186D01*
X131204192Y-99575587D01*
X127063500Y-99575587D01*
X127063500Y-94975261D01*
X127069337Y-94916000D01*
X127063500Y-94856737D01*
X127046042Y-94679485D01*
X126977053Y-94452059D01*
X126977053Y-94452058D01*
X126865021Y-94242461D01*
X126775395Y-94133252D01*
X126740721Y-94091000D01*
X127393928Y-94091000D01*
X127406188Y-94215482D01*
X127442498Y-94335180D01*
X127501463Y-94445494D01*
X127580815Y-94542185D01*
X127677506Y-94621537D01*
X127787820Y-94680502D01*
X127907518Y-94716812D01*
X128032000Y-94729072D01*
X128746250Y-94726000D01*
X128905000Y-94567250D01*
X128905000Y-93218000D01*
X129159000Y-93218000D01*
X129159000Y-94567250D01*
X129317750Y-94726000D01*
X130032000Y-94729072D01*
X130156482Y-94716812D01*
X130276180Y-94680502D01*
X130386494Y-94621537D01*
X130483185Y-94542185D01*
X130562537Y-94445494D01*
X130621502Y-94335180D01*
X130657812Y-94215482D01*
X130670072Y-94091000D01*
X130667000Y-93376750D01*
X130611952Y-93321702D01*
X132576903Y-93321702D01*
X132648486Y-93565671D01*
X132903996Y-93686571D01*
X133178184Y-93755300D01*
X133460512Y-93769217D01*
X133740130Y-93727787D01*
X134006292Y-93632603D01*
X134131514Y-93565671D01*
X134203097Y-93321702D01*
X133390000Y-92508605D01*
X132576903Y-93321702D01*
X130611952Y-93321702D01*
X130508250Y-93218000D01*
X129159000Y-93218000D01*
X128905000Y-93218000D01*
X127555750Y-93218000D01*
X127397000Y-93376750D01*
X127393928Y-94091000D01*
X126740721Y-94091000D01*
X126714252Y-94058748D01*
X126668213Y-94020965D01*
X125667000Y-93019752D01*
X125667000Y-92929967D01*
X125604168Y-92614088D01*
X125548223Y-92479025D01*
X125936248Y-92091000D01*
X127393928Y-92091000D01*
X127397000Y-92805250D01*
X127555750Y-92964000D01*
X128905000Y-92964000D01*
X128905000Y-91614750D01*
X129159000Y-91614750D01*
X129159000Y-92964000D01*
X130508250Y-92964000D01*
X130667000Y-92805250D01*
X130668745Y-92399512D01*
X131949783Y-92399512D01*
X131991213Y-92679130D01*
X132086397Y-92945292D01*
X132153329Y-93070514D01*
X132397298Y-93142097D01*
X133210395Y-92329000D01*
X132397298Y-91515903D01*
X132153329Y-91587486D01*
X132032429Y-91842996D01*
X131963700Y-92117184D01*
X131949783Y-92399512D01*
X130668745Y-92399512D01*
X130670072Y-92091000D01*
X130657812Y-91966518D01*
X130621502Y-91846820D01*
X130562537Y-91736506D01*
X130483185Y-91639815D01*
X130386494Y-91560463D01*
X130276180Y-91501498D01*
X130156482Y-91465188D01*
X130032000Y-91452928D01*
X129317750Y-91456000D01*
X129159000Y-91614750D01*
X128905000Y-91614750D01*
X128746250Y-91456000D01*
X128032000Y-91452928D01*
X127907518Y-91465188D01*
X127787820Y-91501498D01*
X127677506Y-91560463D01*
X127580815Y-91639815D01*
X127501463Y-91736506D01*
X127442498Y-91846820D01*
X127406188Y-91966518D01*
X127393928Y-92091000D01*
X125936248Y-92091000D01*
X126690950Y-91336298D01*
X132576903Y-91336298D01*
X133390000Y-92149395D01*
X134203097Y-91336298D01*
X134131514Y-91092329D01*
X133876004Y-90971429D01*
X133601816Y-90902700D01*
X133319488Y-90888783D01*
X133039870Y-90930213D01*
X132773708Y-91025397D01*
X132648486Y-91092329D01*
X132576903Y-91336298D01*
X126690950Y-91336298D01*
X130589248Y-87438000D01*
X135302928Y-87438000D01*
X135306000Y-87852250D01*
X135464750Y-88011000D01*
X136389000Y-88011000D01*
X136389000Y-86961750D01*
X136230250Y-86803000D01*
X135941000Y-86799928D01*
X135816518Y-86812188D01*
X135696820Y-86848498D01*
X135586506Y-86907463D01*
X135489815Y-86986815D01*
X135410463Y-87083506D01*
X135351498Y-87193820D01*
X135315188Y-87313518D01*
X135302928Y-87438000D01*
X130589248Y-87438000D01*
X130772506Y-87254742D01*
X130887574Y-87231853D01*
X131148727Y-87123680D01*
X131383759Y-86966637D01*
X131550339Y-86800057D01*
X131579498Y-86896180D01*
X131638463Y-87006494D01*
X131717815Y-87103185D01*
X131814506Y-87182537D01*
X131924820Y-87241502D01*
X132044518Y-87277812D01*
X132169000Y-87290072D01*
X132683250Y-87287000D01*
X132842000Y-87128250D01*
X132842000Y-85979000D01*
X133096000Y-85979000D01*
X133096000Y-87128250D01*
X133254750Y-87287000D01*
X133769000Y-87290072D01*
X133893482Y-87277812D01*
X134013180Y-87241502D01*
X134123494Y-87182537D01*
X134220185Y-87103185D01*
X134299537Y-87006494D01*
X134358502Y-86896180D01*
X134394812Y-86776482D01*
X134407072Y-86652000D01*
X134404000Y-86137750D01*
X134245250Y-85979000D01*
X133096000Y-85979000D01*
X132842000Y-85979000D01*
X132822000Y-85979000D01*
X132822000Y-85725000D01*
X132842000Y-85725000D01*
X132842000Y-85705000D01*
X133096000Y-85705000D01*
X133096000Y-85725000D01*
X134245250Y-85725000D01*
X134404000Y-85566250D01*
X134404879Y-85419128D01*
X135325040Y-85419128D01*
X135328992Y-85459255D01*
X135379528Y-85625851D01*
X135461595Y-85779387D01*
X135572038Y-85913962D01*
X135706613Y-86024405D01*
X135860149Y-86106472D01*
X136026745Y-86157008D01*
X136199999Y-86174072D01*
X136850001Y-86174072D01*
X137023255Y-86157008D01*
X137189851Y-86106472D01*
X137343387Y-86024405D01*
X137477962Y-85913962D01*
X137483342Y-85907406D01*
X137548815Y-85987185D01*
X137645506Y-86066537D01*
X137755820Y-86125502D01*
X137875518Y-86161812D01*
X138000000Y-86174072D01*
X138289250Y-86171000D01*
X138448000Y-86012250D01*
X138448000Y-84963000D01*
X138702000Y-84963000D01*
X138702000Y-86012250D01*
X138860750Y-86171000D01*
X139150000Y-86174072D01*
X139274482Y-86161812D01*
X139394180Y-86125502D01*
X139504494Y-86066537D01*
X139601185Y-85987185D01*
X139680537Y-85890494D01*
X139739502Y-85780180D01*
X139775812Y-85660482D01*
X139788072Y-85536000D01*
X139785000Y-85121750D01*
X139626250Y-84963000D01*
X138702000Y-84963000D01*
X138448000Y-84963000D01*
X138428000Y-84963000D01*
X138428000Y-84709000D01*
X138448000Y-84709000D01*
X138448000Y-84689000D01*
X138702000Y-84689000D01*
X138702000Y-84709000D01*
X139626250Y-84709000D01*
X139764260Y-84570990D01*
X143717742Y-84570990D01*
X143719631Y-84572879D01*
X143710184Y-84571000D01*
X143407816Y-84571000D01*
X143111257Y-84629989D01*
X142831905Y-84745701D01*
X142580495Y-84913688D01*
X142366688Y-85127495D01*
X142198701Y-85378905D01*
X142082989Y-85658257D01*
X142024000Y-85954816D01*
X142024000Y-86257184D01*
X142082989Y-86553743D01*
X142198701Y-86833095D01*
X142366688Y-87084505D01*
X142580495Y-87298312D01*
X142831905Y-87466299D01*
X143111257Y-87582011D01*
X143407816Y-87641000D01*
X143710184Y-87641000D01*
X144006743Y-87582011D01*
X144286095Y-87466299D01*
X144537505Y-87298312D01*
X144751312Y-87084505D01*
X144919299Y-86833095D01*
X145035011Y-86553743D01*
X145094000Y-86257184D01*
X145094000Y-85954816D01*
X145092121Y-85945369D01*
X145428982Y-86282230D01*
X145482989Y-86553743D01*
X145598701Y-86833095D01*
X145766688Y-87084505D01*
X145980495Y-87298312D01*
X146231905Y-87466299D01*
X146511257Y-87582011D01*
X146807816Y-87641000D01*
X147110184Y-87641000D01*
X147406743Y-87582011D01*
X147686095Y-87466299D01*
X147937505Y-87298312D01*
X148151312Y-87084505D01*
X148319299Y-86833095D01*
X148435011Y-86553743D01*
X148494000Y-86257184D01*
X148494000Y-86007840D01*
X148910853Y-85590987D01*
X148882989Y-85658257D01*
X148824000Y-85954816D01*
X148824000Y-86257184D01*
X148882989Y-86553743D01*
X148998701Y-86833095D01*
X149166688Y-87084505D01*
X149380495Y-87298312D01*
X149631905Y-87466299D01*
X149911257Y-87582011D01*
X150207816Y-87641000D01*
X150510184Y-87641000D01*
X150806743Y-87582011D01*
X151086095Y-87466299D01*
X151337505Y-87298312D01*
X151551312Y-87084505D01*
X151719299Y-86833095D01*
X151835011Y-86553743D01*
X151894000Y-86257184D01*
X151894000Y-85954816D01*
X151835011Y-85658257D01*
X151719299Y-85378905D01*
X151551312Y-85127495D01*
X151337505Y-84913688D01*
X151086095Y-84745701D01*
X150821228Y-84635989D01*
X153296772Y-84635989D01*
X153031905Y-84745701D01*
X152780495Y-84913688D01*
X152566688Y-85127495D01*
X152398701Y-85378905D01*
X152282989Y-85658257D01*
X152224000Y-85954816D01*
X152224000Y-86257184D01*
X152282989Y-86553743D01*
X152398701Y-86833095D01*
X152566688Y-87084505D01*
X152780495Y-87298312D01*
X153031905Y-87466299D01*
X153311257Y-87582011D01*
X153607816Y-87641000D01*
X153910184Y-87641000D01*
X154206743Y-87582011D01*
X154486095Y-87466299D01*
X154737505Y-87298312D01*
X154951312Y-87084505D01*
X155119299Y-86833095D01*
X155235011Y-86553743D01*
X155294000Y-86257184D01*
X155294000Y-86007841D01*
X155703841Y-85598000D01*
X155707948Y-85598000D01*
X155682989Y-85658257D01*
X155624000Y-85954816D01*
X155624000Y-86257184D01*
X155682989Y-86553743D01*
X155798701Y-86833095D01*
X155966688Y-87084505D01*
X156180495Y-87298312D01*
X156431905Y-87466299D01*
X156711257Y-87582011D01*
X157007816Y-87641000D01*
X157310184Y-87641000D01*
X157606743Y-87582011D01*
X157886095Y-87466299D01*
X158137505Y-87298312D01*
X158351312Y-87084505D01*
X158519299Y-86833095D01*
X158635011Y-86553743D01*
X158694000Y-86257184D01*
X158694000Y-85954816D01*
X158635011Y-85658257D01*
X158610052Y-85598000D01*
X160107160Y-85598000D01*
X160459928Y-85950769D01*
X160459928Y-86177001D01*
X160476992Y-86350255D01*
X160527528Y-86516851D01*
X160609595Y-86670387D01*
X160720038Y-86804962D01*
X160854613Y-86915405D01*
X161008149Y-86997472D01*
X161174745Y-87048008D01*
X161347999Y-87065072D01*
X162248001Y-87065072D01*
X162421255Y-87048008D01*
X162587851Y-86997472D01*
X162741387Y-86915405D01*
X162875962Y-86804962D01*
X162986405Y-86670387D01*
X163068472Y-86516851D01*
X163119008Y-86350255D01*
X163136072Y-86177001D01*
X163136072Y-85526999D01*
X163119008Y-85353745D01*
X163068472Y-85187149D01*
X162986405Y-85033613D01*
X162875962Y-84899038D01*
X162788184Y-84827000D01*
X162875962Y-84754962D01*
X162986405Y-84620387D01*
X163068472Y-84466851D01*
X163119008Y-84300255D01*
X163136072Y-84127001D01*
X163136072Y-83476999D01*
X163119008Y-83303745D01*
X163090571Y-83210000D01*
X168880608Y-83210000D01*
X169692249Y-83282437D01*
X170449774Y-83489672D01*
X171158625Y-83827777D01*
X171796404Y-84286067D01*
X172342946Y-84850055D01*
X172780977Y-85501913D01*
X173096651Y-86221038D01*
X173281206Y-86989768D01*
X173330001Y-87654221D01*
X173330000Y-107920608D01*
X173257563Y-108732249D01*
X173050328Y-109489774D01*
X172712221Y-110198627D01*
X172253928Y-110836410D01*
X171689945Y-111382946D01*
X171038085Y-111820978D01*
X170318963Y-112136651D01*
X169550232Y-112321206D01*
X168885792Y-112370000D01*
X155575000Y-112370000D01*
X155575000Y-109441561D01*
X162264044Y-109441561D01*
X162420040Y-109757108D01*
X162794800Y-109947901D01*
X163199582Y-110061917D01*
X163618829Y-110094772D01*
X164036431Y-110045205D01*
X164436339Y-109915121D01*
X164731960Y-109757108D01*
X164887956Y-109441561D01*
X163576000Y-108129605D01*
X162264044Y-109441561D01*
X155575000Y-109441561D01*
X155575000Y-107992829D01*
X161431228Y-107992829D01*
X161480795Y-108410431D01*
X161610879Y-108810339D01*
X161768892Y-109105960D01*
X162084439Y-109261956D01*
X163396395Y-107950000D01*
X163755605Y-107950000D01*
X165067561Y-109261956D01*
X165248058Y-109172724D01*
X165248058Y-109449870D01*
X165260318Y-109574352D01*
X165296628Y-109694050D01*
X165355593Y-109804364D01*
X165434945Y-109901055D01*
X165531636Y-109980407D01*
X165641950Y-110039372D01*
X165761648Y-110075682D01*
X165886130Y-110087942D01*
X168885870Y-110087942D01*
X169010352Y-110075682D01*
X169130050Y-110039372D01*
X169240364Y-109980407D01*
X169337055Y-109901055D01*
X169416407Y-109804364D01*
X169475372Y-109694050D01*
X169511682Y-109574352D01*
X169523942Y-109449870D01*
X169523942Y-106450130D01*
X169511682Y-106325648D01*
X169475372Y-106205950D01*
X169416407Y-106095636D01*
X169337055Y-105998945D01*
X169240364Y-105919593D01*
X169130050Y-105860628D01*
X169010352Y-105824318D01*
X168885870Y-105812058D01*
X168402000Y-105812058D01*
X168402000Y-105327396D01*
X168500637Y-105228759D01*
X168657680Y-104993727D01*
X168765853Y-104732574D01*
X168821000Y-104455335D01*
X168821000Y-104172665D01*
X168765853Y-103895426D01*
X168657680Y-103634273D01*
X168500637Y-103399241D01*
X168300759Y-103199363D01*
X168065727Y-103042320D01*
X167804574Y-102934147D01*
X167527335Y-102879000D01*
X167244665Y-102879000D01*
X166967426Y-102934147D01*
X166706273Y-103042320D01*
X166471241Y-103199363D01*
X166271363Y-103399241D01*
X166114320Y-103634273D01*
X166006147Y-103895426D01*
X165951000Y-104172665D01*
X165951000Y-104455335D01*
X166006147Y-104732574D01*
X166114320Y-104993727D01*
X166271363Y-105228759D01*
X166370000Y-105327396D01*
X166370000Y-105812058D01*
X165886130Y-105812058D01*
X165761648Y-105824318D01*
X165641950Y-105860628D01*
X165531636Y-105919593D01*
X165434945Y-105998945D01*
X165355593Y-106095636D01*
X165296628Y-106205950D01*
X165260318Y-106325648D01*
X165248058Y-106450130D01*
X165248058Y-106727276D01*
X165067561Y-106638044D01*
X163755605Y-107950000D01*
X163396395Y-107950000D01*
X162084439Y-106638044D01*
X161768892Y-106794040D01*
X161578099Y-107168800D01*
X161464083Y-107573582D01*
X161431228Y-107992829D01*
X155575000Y-107992829D01*
X155575000Y-106458439D01*
X162264044Y-106458439D01*
X163576000Y-107770395D01*
X164887956Y-106458439D01*
X164731960Y-106142892D01*
X164357200Y-105952099D01*
X163952418Y-105838083D01*
X163533171Y-105805228D01*
X163115569Y-105854795D01*
X162715661Y-105984879D01*
X162420040Y-106142892D01*
X162264044Y-106458439D01*
X155575000Y-106458439D01*
X155575000Y-105323202D01*
X162508903Y-105323202D01*
X162580486Y-105567171D01*
X162835996Y-105688071D01*
X163110184Y-105756800D01*
X163392512Y-105770717D01*
X163672130Y-105729287D01*
X163938292Y-105634103D01*
X164063514Y-105567171D01*
X164135097Y-105323202D01*
X163322000Y-104510105D01*
X162508903Y-105323202D01*
X155575000Y-105323202D01*
X155575000Y-104401012D01*
X161881783Y-104401012D01*
X161923213Y-104680630D01*
X162018397Y-104946792D01*
X162085329Y-105072014D01*
X162329298Y-105143597D01*
X163142395Y-104330500D01*
X163501605Y-104330500D01*
X164314702Y-105143597D01*
X164558671Y-105072014D01*
X164679571Y-104816504D01*
X164748300Y-104542316D01*
X164762217Y-104259988D01*
X164720787Y-103980370D01*
X164625603Y-103714208D01*
X164558671Y-103588986D01*
X164314702Y-103517403D01*
X163501605Y-104330500D01*
X163142395Y-104330500D01*
X162329298Y-103517403D01*
X162085329Y-103588986D01*
X161964429Y-103844496D01*
X161895700Y-104118684D01*
X161881783Y-104401012D01*
X155575000Y-104401012D01*
X155575000Y-103337798D01*
X162508903Y-103337798D01*
X163322000Y-104150895D01*
X164135097Y-103337798D01*
X164063514Y-103093829D01*
X163808004Y-102972929D01*
X163533816Y-102904200D01*
X163251488Y-102890283D01*
X162971870Y-102931713D01*
X162705708Y-103026897D01*
X162580486Y-103093829D01*
X162508903Y-103337798D01*
X155575000Y-103337798D01*
X155575000Y-101792000D01*
X156375928Y-101792000D01*
X156388188Y-101916482D01*
X156424498Y-102036180D01*
X156483463Y-102146494D01*
X156562815Y-102243185D01*
X156659506Y-102322537D01*
X156769820Y-102381502D01*
X156889518Y-102417812D01*
X157014000Y-102430072D01*
X157303250Y-102427000D01*
X157462000Y-102268250D01*
X157462000Y-101219000D01*
X156537750Y-101219000D01*
X156379000Y-101377750D01*
X156375928Y-101792000D01*
X155575000Y-101792000D01*
X155575000Y-100392000D01*
X156375928Y-100392000D01*
X156379000Y-100806250D01*
X156537750Y-100965000D01*
X157462000Y-100965000D01*
X157462000Y-99915750D01*
X157303250Y-99757000D01*
X157014000Y-99753928D01*
X156889518Y-99766188D01*
X156769820Y-99802498D01*
X156659506Y-99861463D01*
X156562815Y-99940815D01*
X156483463Y-100037506D01*
X156424498Y-100147820D01*
X156388188Y-100267518D01*
X156375928Y-100392000D01*
X155575000Y-100392000D01*
X155575000Y-99568000D01*
X155572560Y-99543224D01*
X155565333Y-99519399D01*
X155553597Y-99497443D01*
X155537803Y-99478197D01*
X155518557Y-99462403D01*
X155496601Y-99450667D01*
X155472776Y-99443440D01*
X155448000Y-99441000D01*
X151301510Y-99441000D01*
X151301510Y-99396906D01*
X151307347Y-99337645D01*
X151295583Y-99218205D01*
X151284451Y-99105185D01*
X151431851Y-99060472D01*
X151585387Y-98978405D01*
X151719962Y-98867962D01*
X151770813Y-98806000D01*
X152096098Y-98806000D01*
X152146000Y-98810915D01*
X152195902Y-98806000D01*
X152345171Y-98791298D01*
X152536687Y-98733202D01*
X152713190Y-98638860D01*
X152867896Y-98511896D01*
X152899712Y-98473128D01*
X155419769Y-95953072D01*
X155646001Y-95953072D01*
X155819255Y-95936008D01*
X155985851Y-95885472D01*
X156139387Y-95803405D01*
X156273962Y-95692962D01*
X156324813Y-95631000D01*
X156585187Y-95631000D01*
X156636038Y-95692962D01*
X156770613Y-95803405D01*
X156924149Y-95885472D01*
X156978654Y-95902006D01*
X156905873Y-95974787D01*
X156867104Y-96006604D01*
X156740140Y-96161310D01*
X156645798Y-96337814D01*
X156590675Y-96519528D01*
X156587702Y-96529330D01*
X156568085Y-96728500D01*
X156573000Y-96778403D01*
X156573000Y-96788850D01*
X156525595Y-96846613D01*
X156443528Y-97000149D01*
X156392992Y-97166745D01*
X156375928Y-97339999D01*
X156375928Y-98240001D01*
X156392992Y-98413255D01*
X156443528Y-98579851D01*
X156525595Y-98733387D01*
X156636038Y-98867962D01*
X156770613Y-98978405D01*
X156924149Y-99060472D01*
X157090745Y-99111008D01*
X157263999Y-99128072D01*
X157914001Y-99128072D01*
X158087255Y-99111008D01*
X158253851Y-99060472D01*
X158407387Y-98978405D01*
X158541962Y-98867962D01*
X158614000Y-98780184D01*
X158623000Y-98791150D01*
X158623001Y-99950338D01*
X158615185Y-99940815D01*
X158518494Y-99861463D01*
X158408180Y-99802498D01*
X158288482Y-99766188D01*
X158164000Y-99753928D01*
X157874750Y-99757000D01*
X157716000Y-99915750D01*
X157716000Y-100965000D01*
X157736000Y-100965000D01*
X157736000Y-101219000D01*
X157716000Y-101219000D01*
X157716000Y-102268250D01*
X157874750Y-102427000D01*
X158164000Y-102430072D01*
X158288482Y-102417812D01*
X158408180Y-102381502D01*
X158518494Y-102322537D01*
X158615185Y-102243185D01*
X158680658Y-102163406D01*
X158686038Y-102169962D01*
X158820613Y-102280405D01*
X158974149Y-102362472D01*
X159140745Y-102413008D01*
X159313999Y-102430072D01*
X159964001Y-102430072D01*
X160137255Y-102413008D01*
X160303851Y-102362472D01*
X160457387Y-102280405D01*
X160591962Y-102169962D01*
X160642813Y-102108000D01*
X165558098Y-102108000D01*
X165608000Y-102112915D01*
X165657902Y-102108000D01*
X165807171Y-102093298D01*
X165998687Y-102035202D01*
X166175190Y-101940860D01*
X166329896Y-101813896D01*
X166361712Y-101775128D01*
X167387841Y-100749000D01*
X167527335Y-100749000D01*
X167804574Y-100693853D01*
X168065727Y-100585680D01*
X168300759Y-100428637D01*
X168500637Y-100228759D01*
X168657680Y-99993727D01*
X168765853Y-99732574D01*
X168821000Y-99455335D01*
X168821000Y-99172665D01*
X168765853Y-98895426D01*
X168657680Y-98634273D01*
X168500637Y-98399241D01*
X168300759Y-98199363D01*
X168065727Y-98042320D01*
X167804574Y-97934147D01*
X167527335Y-97879000D01*
X167244665Y-97879000D01*
X166967426Y-97934147D01*
X166706273Y-98042320D01*
X166471241Y-98199363D01*
X166271363Y-98399241D01*
X166114320Y-98634273D01*
X166006147Y-98895426D01*
X165951000Y-99172665D01*
X165951000Y-99312159D01*
X165187160Y-100076000D01*
X164549732Y-100076000D01*
X164593680Y-100010227D01*
X164701853Y-99749074D01*
X164757000Y-99471835D01*
X164757000Y-99189165D01*
X164701853Y-98911926D01*
X164593680Y-98650773D01*
X164436637Y-98415741D01*
X164338000Y-98317104D01*
X164338000Y-97458893D01*
X164342914Y-97408999D01*
X164338000Y-97359105D01*
X164338000Y-97359098D01*
X164323298Y-97209829D01*
X164265202Y-97018313D01*
X164170860Y-96841810D01*
X164043896Y-96687104D01*
X164005133Y-96655292D01*
X162980840Y-95631000D01*
X164415098Y-95631000D01*
X164465000Y-95635915D01*
X164514902Y-95631000D01*
X164664171Y-95616298D01*
X164855687Y-95558202D01*
X165032190Y-95463860D01*
X165186896Y-95336896D01*
X165218712Y-95298128D01*
X169978769Y-90538072D01*
X171180000Y-90538072D01*
X171304482Y-90525812D01*
X171424180Y-90489502D01*
X171534494Y-90430537D01*
X171631185Y-90351185D01*
X171710537Y-90254494D01*
X171769502Y-90144180D01*
X171805812Y-90024482D01*
X171818072Y-89900000D01*
X171818072Y-87900000D01*
X171805812Y-87775518D01*
X171769502Y-87655820D01*
X171710537Y-87545506D01*
X171631185Y-87448815D01*
X171534494Y-87369463D01*
X171424180Y-87310498D01*
X171304482Y-87274188D01*
X171180000Y-87261928D01*
X169180000Y-87261928D01*
X169055518Y-87274188D01*
X168935820Y-87310498D01*
X168825506Y-87369463D01*
X168728815Y-87448815D01*
X168649463Y-87545506D01*
X168590498Y-87655820D01*
X168554188Y-87775518D01*
X168541928Y-87900000D01*
X168541928Y-89101231D01*
X164044160Y-93599000D01*
X160642813Y-93599000D01*
X160591962Y-93537038D01*
X160457387Y-93426595D01*
X160303851Y-93344528D01*
X160137255Y-93293992D01*
X159964001Y-93276928D01*
X159313999Y-93276928D01*
X159140745Y-93293992D01*
X158974149Y-93344528D01*
X158820613Y-93426595D01*
X158686038Y-93537038D01*
X158614000Y-93624816D01*
X158541962Y-93537038D01*
X158407387Y-93426595D01*
X158253851Y-93344528D01*
X158087255Y-93293992D01*
X157914001Y-93276928D01*
X157263999Y-93276928D01*
X157090745Y-93293992D01*
X156924149Y-93344528D01*
X156770613Y-93426595D01*
X156636038Y-93537038D01*
X156585187Y-93599000D01*
X156475000Y-93599000D01*
X156475000Y-92340817D01*
X156651312Y-92164505D01*
X156819299Y-91913095D01*
X156935011Y-91633743D01*
X156994000Y-91337184D01*
X156994000Y-91034816D01*
X157324000Y-91034816D01*
X157324000Y-91337184D01*
X157382989Y-91633743D01*
X157498701Y-91913095D01*
X157666688Y-92164505D01*
X157880495Y-92378312D01*
X158131905Y-92546299D01*
X158411257Y-92662011D01*
X158707816Y-92721000D01*
X159010184Y-92721000D01*
X159306743Y-92662011D01*
X159586095Y-92546299D01*
X159837505Y-92378312D01*
X160051312Y-92164505D01*
X160219299Y-91913095D01*
X160335011Y-91633743D01*
X160394000Y-91337184D01*
X160394000Y-91034816D01*
X160335011Y-90738257D01*
X160219299Y-90458905D01*
X160051312Y-90207495D01*
X159879230Y-90035413D01*
X164224192Y-90035413D01*
X164319956Y-90299814D01*
X164609571Y-90440704D01*
X164921108Y-90522384D01*
X165242595Y-90541718D01*
X165561675Y-90497961D01*
X165866088Y-90392795D01*
X166040044Y-90299814D01*
X166135808Y-90035413D01*
X165180000Y-89079605D01*
X164224192Y-90035413D01*
X159879230Y-90035413D01*
X159837505Y-89993688D01*
X159586095Y-89825701D01*
X159306743Y-89709989D01*
X159010184Y-89651000D01*
X158707816Y-89651000D01*
X158411257Y-89709989D01*
X158131905Y-89825701D01*
X157880495Y-89993688D01*
X157666688Y-90207495D01*
X157498701Y-90458905D01*
X157382989Y-90738257D01*
X157324000Y-91034816D01*
X156994000Y-91034816D01*
X156935011Y-90738257D01*
X156819299Y-90458905D01*
X156651312Y-90207495D01*
X156437505Y-89993688D01*
X156186095Y-89825701D01*
X155906743Y-89709989D01*
X155610184Y-89651000D01*
X155307816Y-89651000D01*
X155011257Y-89709989D01*
X154731905Y-89825701D01*
X154480495Y-89993688D01*
X154266688Y-90207495D01*
X154098701Y-90458905D01*
X153982989Y-90738257D01*
X153924000Y-91034816D01*
X153924000Y-91337184D01*
X153982989Y-91633743D01*
X154098701Y-91913095D01*
X154266688Y-92164505D01*
X154443000Y-92340817D01*
X154443001Y-93475518D01*
X154368038Y-93537038D01*
X154296000Y-93624816D01*
X154223962Y-93537038D01*
X154089387Y-93426595D01*
X153935851Y-93344528D01*
X153769255Y-93293992D01*
X153596001Y-93276928D01*
X152945999Y-93276928D01*
X152772745Y-93293992D01*
X152606149Y-93344528D01*
X152452613Y-93426595D01*
X152318038Y-93537038D01*
X152267187Y-93599000D01*
X151752813Y-93599000D01*
X151701962Y-93537038D01*
X151567387Y-93426595D01*
X151413851Y-93344528D01*
X151247255Y-93293992D01*
X151074001Y-93276928D01*
X150423999Y-93276928D01*
X150250745Y-93293992D01*
X150084149Y-93344528D01*
X149930613Y-93426595D01*
X149796038Y-93537038D01*
X149724000Y-93624816D01*
X149651962Y-93537038D01*
X149517387Y-93426595D01*
X149363851Y-93344528D01*
X149197255Y-93293992D01*
X149059692Y-93280443D01*
X148498370Y-92719121D01*
X148507816Y-92721000D01*
X148810184Y-92721000D01*
X149106743Y-92662011D01*
X149386095Y-92546299D01*
X149637505Y-92378312D01*
X149851312Y-92164505D01*
X150019299Y-91913095D01*
X150135011Y-91633743D01*
X150151521Y-91550740D01*
X150567964Y-91550740D01*
X150616606Y-91711107D01*
X150746764Y-91982414D01*
X150927351Y-92223116D01*
X151151427Y-92423962D01*
X151410380Y-92577234D01*
X151694259Y-92677041D01*
X151932000Y-92556992D01*
X151932000Y-91313000D01*
X152186000Y-91313000D01*
X152186000Y-92556992D01*
X152423741Y-92677041D01*
X152707620Y-92577234D01*
X152966573Y-92423962D01*
X153190649Y-92223116D01*
X153371236Y-91982414D01*
X153501394Y-91711107D01*
X153550036Y-91550740D01*
X153429378Y-91313000D01*
X152186000Y-91313000D01*
X151932000Y-91313000D01*
X150688622Y-91313000D01*
X150567964Y-91550740D01*
X150151521Y-91550740D01*
X150194000Y-91337184D01*
X150194000Y-91034816D01*
X150151522Y-90821260D01*
X150567964Y-90821260D01*
X150688622Y-91059000D01*
X151932000Y-91059000D01*
X151932000Y-89815008D01*
X152186000Y-89815008D01*
X152186000Y-91059000D01*
X153429378Y-91059000D01*
X153550036Y-90821260D01*
X153501394Y-90660893D01*
X153371236Y-90389586D01*
X153190649Y-90148884D01*
X152966573Y-89948038D01*
X152707620Y-89794766D01*
X152423741Y-89694959D01*
X152186000Y-89815008D01*
X151932000Y-89815008D01*
X151694259Y-89694959D01*
X151410380Y-89794766D01*
X151151427Y-89948038D01*
X150927351Y-90148884D01*
X150746764Y-90389586D01*
X150616606Y-90660893D01*
X150567964Y-90821260D01*
X150151522Y-90821260D01*
X150135011Y-90738257D01*
X150019299Y-90458905D01*
X149851312Y-90207495D01*
X149637505Y-89993688D01*
X149386095Y-89825701D01*
X149106743Y-89709989D01*
X148835230Y-89655982D01*
X148570220Y-89390972D01*
X148570215Y-89390968D01*
X148141843Y-88962595D01*
X163538282Y-88962595D01*
X163582039Y-89281675D01*
X163687205Y-89586088D01*
X163780186Y-89760044D01*
X164044587Y-89855808D01*
X165000395Y-88900000D01*
X165359605Y-88900000D01*
X166315413Y-89855808D01*
X166579814Y-89760044D01*
X166720704Y-89470429D01*
X166802384Y-89158892D01*
X166821718Y-88837405D01*
X166777961Y-88518325D01*
X166672795Y-88213912D01*
X166579814Y-88039956D01*
X166315413Y-87944192D01*
X165359605Y-88900000D01*
X165000395Y-88900000D01*
X164044587Y-87944192D01*
X163780186Y-88039956D01*
X163639296Y-88329571D01*
X163557616Y-88641108D01*
X163538282Y-88962595D01*
X148141843Y-88962595D01*
X147882534Y-88703286D01*
X147844751Y-88657247D01*
X147661037Y-88506478D01*
X147451440Y-88394446D01*
X147224014Y-88325457D01*
X147046762Y-88307999D01*
X147046760Y-88307999D01*
X146987499Y-88302162D01*
X146928238Y-88307999D01*
X143589761Y-88307999D01*
X143530500Y-88302162D01*
X143471239Y-88307999D01*
X143471238Y-88307999D01*
X143293986Y-88325457D01*
X143066560Y-88394446D01*
X142856963Y-88506478D01*
X142673249Y-88657247D01*
X142635471Y-88703280D01*
X141690824Y-89647928D01*
X140959000Y-89647928D01*
X140834518Y-89660188D01*
X140714820Y-89696498D01*
X140604506Y-89755463D01*
X140507815Y-89834815D01*
X140428463Y-89931506D01*
X140369498Y-90041820D01*
X140333188Y-90161518D01*
X140320928Y-90286000D01*
X140320928Y-91017824D01*
X140216252Y-91122500D01*
X137596248Y-91122500D01*
X139377220Y-89341529D01*
X139423252Y-89303752D01*
X139446485Y-89275443D01*
X139518962Y-89215962D01*
X139629405Y-89081387D01*
X139711472Y-88927851D01*
X139762008Y-88761255D01*
X139779072Y-88588001D01*
X139779072Y-87764587D01*
X164224192Y-87764587D01*
X165180000Y-88720395D01*
X166135808Y-87764587D01*
X166040044Y-87500186D01*
X165750429Y-87359296D01*
X165438892Y-87277616D01*
X165117405Y-87258282D01*
X164798325Y-87302039D01*
X164493912Y-87407205D01*
X164319956Y-87500186D01*
X164224192Y-87764587D01*
X139779072Y-87764587D01*
X139779072Y-87687999D01*
X139762008Y-87514745D01*
X139711472Y-87348149D01*
X139629405Y-87194613D01*
X139518962Y-87060038D01*
X139384387Y-86949595D01*
X139230851Y-86867528D01*
X139064255Y-86816992D01*
X138891001Y-86799928D01*
X138240999Y-86799928D01*
X138067745Y-86816992D01*
X137901149Y-86867528D01*
X137747613Y-86949595D01*
X137613038Y-87060038D01*
X137607658Y-87066594D01*
X137542185Y-86986815D01*
X137445494Y-86907463D01*
X137335180Y-86848498D01*
X137215482Y-86812188D01*
X137091000Y-86799928D01*
X136801750Y-86803000D01*
X136643000Y-86961750D01*
X136643000Y-88011000D01*
X136663000Y-88011000D01*
X136663000Y-88265000D01*
X136643000Y-88265000D01*
X136643000Y-88285000D01*
X136389000Y-88285000D01*
X136389000Y-88265000D01*
X135464750Y-88265000D01*
X135306000Y-88423750D01*
X135302928Y-88838000D01*
X135315188Y-88962482D01*
X135351498Y-89082180D01*
X135410463Y-89192494D01*
X135489815Y-89289185D01*
X135586506Y-89368537D01*
X135696820Y-89427502D01*
X135816518Y-89463812D01*
X135840116Y-89466136D01*
X135078782Y-90227470D01*
X135032749Y-90265248D01*
X134994971Y-90311281D01*
X134881979Y-90448962D01*
X134842664Y-90522516D01*
X134769947Y-90658559D01*
X134700958Y-90885985D01*
X134685867Y-91039200D01*
X134638815Y-91077815D01*
X134559463Y-91174506D01*
X134500498Y-91284820D01*
X134464188Y-91404518D01*
X134451928Y-91529000D01*
X134451928Y-91536215D01*
X134382702Y-91515903D01*
X133569605Y-92329000D01*
X134382702Y-93142097D01*
X134451928Y-93121785D01*
X134451928Y-93129000D01*
X134464188Y-93253482D01*
X134500498Y-93373180D01*
X134559463Y-93483494D01*
X134638815Y-93580185D01*
X134683501Y-93616858D01*
X134683500Y-99381739D01*
X134677663Y-99441000D01*
X134683500Y-99500261D01*
X134683500Y-99500262D01*
X134700958Y-99677514D01*
X134769947Y-99904940D01*
X134769948Y-99904941D01*
X134881979Y-100114538D01*
X134939033Y-100184058D01*
X135032748Y-100298252D01*
X135078786Y-100336034D01*
X135453752Y-100711000D01*
X133935782Y-102228970D01*
X133889749Y-102266748D01*
X133851971Y-102312781D01*
X133738979Y-102450462D01*
X133626948Y-102660059D01*
X133557959Y-102887485D01*
X133534663Y-103124000D01*
X133540501Y-103183271D01*
X133540500Y-106196868D01*
X132996940Y-106196868D01*
X132872458Y-106209128D01*
X132752760Y-106245438D01*
X132642446Y-106304403D01*
X132545755Y-106383755D01*
X132466403Y-106480446D01*
X132407438Y-106590760D01*
X132371128Y-106710458D01*
X132358868Y-106834940D01*
X132358868Y-107367198D01*
X132312815Y-107281039D01*
X131971651Y-107094954D01*
X130481605Y-108585000D01*
X131971651Y-110075046D01*
X132312815Y-109888961D01*
X132358868Y-109799878D01*
X132358868Y-110335060D01*
X132371128Y-110459542D01*
X132407438Y-110579240D01*
X132466403Y-110689554D01*
X132545755Y-110786245D01*
X132642446Y-110865597D01*
X132752760Y-110924562D01*
X132872458Y-110960872D01*
X132996940Y-110973132D01*
X136497060Y-110973132D01*
X136621542Y-110960872D01*
X136741240Y-110924562D01*
X136851554Y-110865597D01*
X136948245Y-110786245D01*
X137027597Y-110689554D01*
X137086562Y-110579240D01*
X137122872Y-110459542D01*
X137135132Y-110335060D01*
X137135132Y-106834940D01*
X137122872Y-106710458D01*
X137086562Y-106590760D01*
X137027597Y-106480446D01*
X136948245Y-106383755D01*
X136851554Y-106304403D01*
X136741240Y-106245438D01*
X136621542Y-106209128D01*
X136497060Y-106196868D01*
X135953500Y-106196868D01*
X135953500Y-103623748D01*
X137228177Y-102349072D01*
X138160000Y-102349072D01*
X138284482Y-102336812D01*
X138404180Y-102300502D01*
X138514494Y-102241537D01*
X138611185Y-102162185D01*
X138690537Y-102065494D01*
X138749502Y-101955180D01*
X138785812Y-101835482D01*
X138798072Y-101711000D01*
X138798072Y-99711000D01*
X138785812Y-99586518D01*
X138749502Y-99466820D01*
X138690537Y-99356506D01*
X138611185Y-99259815D01*
X138514494Y-99180463D01*
X138404180Y-99121498D01*
X138284482Y-99085188D01*
X138160000Y-99072928D01*
X137228176Y-99072928D01*
X137096500Y-98941252D01*
X137096500Y-93616857D01*
X137141185Y-93580185D01*
X137177857Y-93535500D01*
X140330467Y-93535500D01*
X140278000Y-93799268D01*
X140278000Y-94160732D01*
X140348518Y-94515250D01*
X140486844Y-94849199D01*
X140687662Y-95149744D01*
X140943256Y-95405338D01*
X141243801Y-95606156D01*
X141577750Y-95744482D01*
X141932268Y-95815000D01*
X142293732Y-95815000D01*
X142648250Y-95744482D01*
X142982199Y-95606156D01*
X143282744Y-95405338D01*
X143538338Y-95149744D01*
X143739156Y-94849199D01*
X143877482Y-94515250D01*
X143937443Y-94213805D01*
X145259000Y-92892248D01*
X147491847Y-95125096D01*
X147492500Y-95131728D01*
X147492500Y-95474262D01*
X147492501Y-95474272D01*
X147492500Y-97882375D01*
X147486663Y-97941636D01*
X147492500Y-98000897D01*
X147492500Y-98000898D01*
X147503928Y-98116927D01*
X147503928Y-98240001D01*
X147520992Y-98413255D01*
X147571528Y-98579851D01*
X147653595Y-98733387D01*
X147764038Y-98867962D01*
X147898613Y-98978405D01*
X148052149Y-99060472D01*
X148137469Y-99086353D01*
X148888511Y-99837396D01*
X148888511Y-102155115D01*
X148742759Y-102009363D01*
X148507727Y-101852320D01*
X148246574Y-101744147D01*
X147969335Y-101689000D01*
X147686665Y-101689000D01*
X147409426Y-101744147D01*
X147148273Y-101852320D01*
X147050724Y-101917500D01*
X145474260Y-101917500D01*
X145414999Y-101911663D01*
X145355738Y-101917500D01*
X145355737Y-101917500D01*
X145178485Y-101934958D01*
X144951059Y-102003947D01*
X144741462Y-102115979D01*
X144557748Y-102266748D01*
X144519970Y-102312781D01*
X141301782Y-105530970D01*
X141255749Y-105568748D01*
X141217971Y-105614781D01*
X141104979Y-105752462D01*
X140992948Y-105962059D01*
X140923959Y-106189485D01*
X140900663Y-106426000D01*
X140906501Y-106485270D01*
X140906500Y-107831418D01*
X140687662Y-108050256D01*
X140486844Y-108350801D01*
X140348518Y-108684750D01*
X140278000Y-109039268D01*
X140278000Y-109400732D01*
X140348518Y-109755250D01*
X140486844Y-110089199D01*
X140687662Y-110389744D01*
X140943256Y-110645338D01*
X141243801Y-110846156D01*
X141577750Y-110984482D01*
X141932268Y-111055000D01*
X142293732Y-111055000D01*
X142648250Y-110984482D01*
X142982199Y-110846156D01*
X143282744Y-110645338D01*
X143538338Y-110389744D01*
X143739156Y-110089199D01*
X143877482Y-109755250D01*
X143948000Y-109400732D01*
X143948000Y-109039268D01*
X143877482Y-108684750D01*
X143739156Y-108350801D01*
X143538338Y-108050256D01*
X143319500Y-107831418D01*
X143319500Y-106925748D01*
X145914749Y-104330500D01*
X147050724Y-104330500D01*
X147148273Y-104395680D01*
X147409426Y-104503853D01*
X147686665Y-104559000D01*
X147969335Y-104559000D01*
X148246574Y-104503853D01*
X148507727Y-104395680D01*
X148742759Y-104238637D01*
X148888510Y-104092886D01*
X148888510Y-105370378D01*
X148189020Y-106069868D01*
X145823940Y-106069868D01*
X145699458Y-106082128D01*
X145579760Y-106118438D01*
X145469446Y-106177403D01*
X145372755Y-106256755D01*
X145293403Y-106353446D01*
X145234438Y-106463760D01*
X145198128Y-106583458D01*
X145185868Y-106707940D01*
X145185868Y-110208060D01*
X145198128Y-110332542D01*
X145234438Y-110452240D01*
X145293403Y-110562554D01*
X145372755Y-110659245D01*
X145469446Y-110738597D01*
X145579760Y-110797562D01*
X145699458Y-110833872D01*
X145823940Y-110846132D01*
X149324060Y-110846132D01*
X149448542Y-110833872D01*
X149568240Y-110797562D01*
X149678554Y-110738597D01*
X149775245Y-110659245D01*
X149854597Y-110562554D01*
X149913562Y-110452240D01*
X149949872Y-110332542D01*
X149962132Y-110208060D01*
X149962132Y-110127651D01*
X151163954Y-110127651D01*
X151350039Y-110468815D01*
X151767384Y-110684568D01*
X152218802Y-110814755D01*
X152686944Y-110854374D01*
X153153821Y-110801901D01*
X153601489Y-110659354D01*
X153957961Y-110468815D01*
X154144046Y-110127651D01*
X152654000Y-108637605D01*
X151163954Y-110127651D01*
X149962132Y-110127651D01*
X149962132Y-108490944D01*
X150257626Y-108490944D01*
X150310099Y-108957821D01*
X150452646Y-109405489D01*
X150643185Y-109761961D01*
X150984349Y-109948046D01*
X152474395Y-108458000D01*
X150984349Y-106967954D01*
X150643185Y-107154039D01*
X150427432Y-107571384D01*
X150297245Y-108022802D01*
X150257626Y-108490944D01*
X149962132Y-108490944D01*
X149962132Y-107709252D01*
X150883035Y-106788349D01*
X151163954Y-106788349D01*
X152654000Y-108278395D01*
X154144046Y-106788349D01*
X153957961Y-106447185D01*
X153540616Y-106231432D01*
X153089198Y-106101245D01*
X152621056Y-106061626D01*
X152154179Y-106114099D01*
X151706511Y-106256646D01*
X151350039Y-106447185D01*
X151163954Y-106788349D01*
X150883035Y-106788349D01*
X150906225Y-106765159D01*
X150952262Y-106727378D01*
X151103031Y-106543664D01*
X151215063Y-106334067D01*
X151284052Y-106106641D01*
X151301510Y-105929389D01*
X151301510Y-105929388D01*
X151307347Y-105870126D01*
X151301510Y-105810863D01*
X151301510Y-104116702D01*
X152014903Y-104116702D01*
X152086486Y-104360671D01*
X152341996Y-104481571D01*
X152616184Y-104550300D01*
X152898512Y-104564217D01*
X153178130Y-104522787D01*
X153444292Y-104427603D01*
X153569514Y-104360671D01*
X153641097Y-104116702D01*
X152828000Y-103303605D01*
X152014903Y-104116702D01*
X151301510Y-104116702D01*
X151301510Y-103194512D01*
X151387783Y-103194512D01*
X151429213Y-103474130D01*
X151524397Y-103740292D01*
X151591329Y-103865514D01*
X151835298Y-103937097D01*
X152648395Y-103124000D01*
X153007605Y-103124000D01*
X153820702Y-103937097D01*
X154064671Y-103865514D01*
X154185571Y-103610004D01*
X154254300Y-103335816D01*
X154268217Y-103053488D01*
X154226787Y-102773870D01*
X154131603Y-102507708D01*
X154064671Y-102382486D01*
X153820702Y-102310903D01*
X153007605Y-103124000D01*
X152648395Y-103124000D01*
X151835298Y-102310903D01*
X151591329Y-102382486D01*
X151470429Y-102637996D01*
X151401700Y-102912184D01*
X151387783Y-103194512D01*
X151301510Y-103194512D01*
X151301510Y-102131298D01*
X152014903Y-102131298D01*
X152828000Y-102944395D01*
X153641097Y-102131298D01*
X153569514Y-101887329D01*
X153314004Y-101766429D01*
X153039816Y-101697700D01*
X152757488Y-101683783D01*
X152477870Y-101725213D01*
X152211708Y-101820397D01*
X152086486Y-101887329D01*
X152014903Y-102131298D01*
X151301510Y-102131298D01*
X151301510Y-100076000D01*
X154813000Y-100076000D01*
X154813000Y-107431273D01*
X154664815Y-107154039D01*
X154323651Y-106967954D01*
X152833605Y-108458000D01*
X154323651Y-109948046D01*
X154664815Y-109761961D01*
X154813000Y-109475317D01*
X154813000Y-112370000D01*
X125759392Y-112370000D01*
X124947751Y-112297563D01*
X124190226Y-112090328D01*
X123481373Y-111752221D01*
X122843590Y-111293928D01*
X122297054Y-110729945D01*
X121859022Y-110078085D01*
X121543349Y-109358963D01*
X121358794Y-108590232D01*
X121310000Y-107925792D01*
X121310000Y-87659392D01*
X121382437Y-86847751D01*
X121589672Y-86090226D01*
X121927777Y-85381375D01*
X122386067Y-84743596D01*
X122950055Y-84197054D01*
X123601913Y-83759023D01*
X124321038Y-83443349D01*
X125089768Y-83258794D01*
X125754207Y-83210000D01*
X130296893Y-83210000D01*
X130119750Y-83355376D01*
M02*
