M48
; DRILL file {KiCad 5.1.6-c6e7f7d~87~ubuntu18.04.1} date Fri Aug 21 12:14:13 2020
; FORMAT={3:3/ absolute / metric / suppress leading zeros}
; #@! TF.CreationDate,2020-08-21T12:14:13-04:00
; #@! TF.GenerationSoftware,Kicad,Pcbnew,5.1.6-c6e7f7d~87~ubuntu18.04.1
FMAT,2
METRIC,TZ
T1C0.800
T2C1.000
T3C1.199
T4C1.200
T5C1.501
%
G90
G05
T1
X130469Y-85852
X147828Y-103124
X167386Y-99314
X167386Y-104314
X163322Y-99331
X163322Y-104331
X132969Y-85852
X133390Y-92329
X135890Y-92329
X152828Y-103124
T2
X141859Y-91186
X143559Y-86106
X145259Y-91186
X146959Y-86106
X148659Y-91186
X150359Y-86106
X152059Y-91186
X153759Y-86106
X155459Y-91186
X157159Y-86106
X158859Y-91186
X165180Y-88900
X170180Y-88900
X124032Y-93091
X129032Y-93091
X132160Y-100711
X137160Y-100711
T3
X163576Y-107950
X167386Y-107950
T4
X142113Y-93980
X142113Y-109220
T5
X147574Y-108458
X152654Y-108458
X125857Y-108585
X130302Y-108585
X134747Y-108585
T0
M30
